<?xml version="1.0" encoding="UTF-8"?>
<svg id="Camada_2" data-name="Camada 2" xmlns="http://www.w3.org/2000/svg" viewBox="0 0 290.14 173.87">
  <defs>
    <style>
      .cls-1 {
        fill: #22252a;
      }

      .cls-2 {
        fill: #dbddde;
      }

      .cls-3 {
        fill: #f8f9fa;
      }

      .cls-4 {
        fill: #fff;
      }

      .cls-5 {
        fill: #7b7d81;
      }

      .cls-6 {
        fill: #a0a1a3;
      }

      .cls-7 {
        fill: #575a60;
      }

      .cls-8 {
        fill: #ee4623;
      }

      .cls-9 {
        fill: #182028;
      }

      .cls-10 {
        fill: #373940;
      }

      .cls-11 {
        fill: #e5e5e6;
      }

      .cls-12 {
        fill: #c5c4c6;
      }

      .cls-13 {
        fill: #30373e;
      }
    </style>
  </defs>
  <g id="Camada_1-2" data-name="Camada 1">
    <rect class="cls-9" width="290.14" height="173.87" rx="2.17" ry="2.17"/>
    <path class="cls-2" d="M22.21,127.68v-3.95h1.34c.31,0,.56.06.76.17.2.11.34.26.44.45.1.19.14.4.14.63s-.05.44-.14.64c-.09.19-.24.34-.44.46-.2.11-.45.17-.76.17h-.96v-.42h.94c.21,0,.38-.04.51-.11.13-.07.22-.17.28-.3.06-.13.09-.27.09-.43s-.03-.3-.09-.42c-.06-.12-.15-.22-.28-.29-.13-.07-.3-.11-.52-.11h-.84v3.53h-.48ZM26.47,127.75c-.19,0-.36-.04-.51-.11-.15-.07-.27-.18-.36-.31-.09-.14-.14-.3-.14-.49,0-.17.03-.31.1-.41.07-.11.16-.19.27-.25.11-.06.24-.11.37-.13.14-.03.27-.06.41-.07.18-.02.33-.04.44-.05.11-.01.2-.03.25-.06.05-.03.08-.08.08-.15v-.02c0-.19-.05-.34-.16-.44-.1-.11-.26-.16-.47-.16s-.39.05-.51.14c-.12.1-.21.2-.26.3l-.43-.15c.08-.18.18-.32.31-.42.13-.1.27-.17.42-.21.15-.04.31-.06.46-.06.1,0,.2.01.33.03.12.02.25.07.36.14.12.07.21.17.29.31.08.14.12.33.12.56v1.95h-.46v-.4h-.02c-.03.06-.08.13-.15.21-.07.07-.17.14-.29.19-.12.05-.27.08-.44.08ZM26.54,127.34c.18,0,.33-.04.46-.11.12-.07.22-.16.28-.27.06-.11.1-.23.1-.35v-.42s-.06.04-.13.06c-.06.02-.14.03-.22.05-.08.01-.17.02-.25.03-.08,0-.14.02-.19.02-.12.02-.23.04-.33.08-.1.03-.18.08-.25.15-.06.07-.09.16-.09.27,0,.16.06.28.18.36.12.08.27.12.45.12ZM29.12,125.9v1.78h-.46v-2.96h.44v.46h.04c.07-.15.17-.27.32-.36.14-.09.32-.14.55-.14.2,0,.38.04.53.12.15.08.27.2.35.37.08.16.13.37.13.62v1.88h-.46v-1.85c0-.23-.06-.41-.18-.54-.12-.13-.29-.2-.5-.2-.15,0-.28.03-.39.09-.11.06-.2.16-.27.28-.07.12-.1.27-.1.44ZM33.13,124.72v.39h-1.54v-.39h1.54ZM32.04,124.01h.46v2.82c0,.13.02.22.06.29.04.06.09.11.15.13.06.02.12.03.19.03.05,0,.09,0,.12,0,.03,0,.06-.01.08-.02l.09.41s-.07.02-.13.03c-.06.01-.13.02-.21.02-.13,0-.25-.03-.38-.08-.12-.05-.22-.14-.3-.25-.08-.11-.12-.26-.12-.43v-2.95ZM34.99,127.75c-.27,0-.5-.06-.7-.19-.2-.13-.36-.31-.47-.53-.11-.23-.17-.5-.17-.8s.06-.58.17-.81c.11-.23.27-.41.47-.54.2-.13.44-.19.7-.19s.5.06.7.19c.2.13.36.31.47.54.11.23.17.5.17.81s-.06.57-.17.8c-.11.23-.27.41-.47.53-.2.13-.43.19-.7.19ZM34.99,127.34c.2,0,.37-.05.5-.16s.23-.24.29-.41c.06-.17.09-.35.09-.55s-.03-.38-.09-.55c-.06-.17-.16-.31-.29-.42-.13-.11-.3-.16-.5-.16s-.37.05-.5.16c-.13.11-.23.24-.29.42-.06.17-.09.36-.09.55s.03.38.09.55c.06.17.16.31.29.41s.3.16.5.16ZM37.48,125.9v1.78h-.46v-2.96h.44v.46h.04c.07-.15.17-.27.32-.36.14-.09.32-.14.55-.14.2,0,.38.04.53.12.15.08.27.2.35.37.08.16.13.37.13.62v1.88h-.46v-1.85c0-.23-.06-.41-.18-.54-.12-.13-.29-.2-.5-.2-.15,0-.28.03-.39.09-.11.06-.2.16-.27.28-.07.12-.1.27-.1.44ZM41.44,127.75c-.29,0-.53-.06-.74-.19-.21-.13-.36-.3-.48-.53-.11-.23-.17-.5-.17-.8s.06-.57.17-.8c.11-.23.27-.41.47-.54.2-.13.43-.2.7-.2.15,0,.31.03.46.08.15.05.29.14.41.25.12.11.22.27.3.46.07.19.11.42.11.7v.19h-2.28v-.39h1.82c0-.17-.03-.32-.1-.45-.07-.13-.16-.24-.28-.31-.12-.08-.26-.11-.43-.11-.18,0-.34.05-.47.14-.13.09-.23.2-.3.35-.07.14-.11.3-.11.46v.26c0,.22.04.41.12.57.08.15.19.27.33.35.14.08.3.12.48.12.12,0,.23-.02.32-.05.1-.03.18-.09.25-.15.07-.07.13-.16.16-.26l.44.12c-.05.15-.12.28-.23.39-.11.11-.24.2-.41.26-.16.06-.34.09-.54.09ZM43.7,127.72c-.1,0-.18-.03-.25-.1-.07-.07-.1-.15-.1-.25s.03-.18.1-.25c.07-.07.15-.1.25-.1s.18.03.25.1c.07.07.1.15.1.25,0,.06-.02.12-.05.17-.03.05-.07.1-.13.13-.05.03-.11.05-.17.05ZM43.7,125.52c-.1,0-.18-.03-.25-.1-.07-.07-.1-.15-.1-.25s.03-.18.1-.25c.07-.07.15-.1.25-.1s.18.03.25.1c.07.07.1.15.1.25,0,.06-.02.12-.05.17-.03.05-.07.1-.13.13-.05.03-.11.05-.17.05ZM47.62,127.74c-.23,0-.43-.04-.61-.13s-.33-.21-.44-.37c-.11-.16-.17-.34-.18-.54h.46c.02.18.1.33.24.44.15.12.32.17.52.17.16,0,.31-.04.43-.11.13-.08.23-.18.3-.31.07-.13.11-.28.11-.45s-.04-.33-.11-.46c-.07-.14-.18-.24-.31-.32-.13-.08-.28-.12-.45-.12-.12,0-.25.02-.37.06-.13.04-.23.09-.31.14l-.45-.05.24-1.95h2.05v.42h-1.65l-.14,1.16h.02c.08-.06.18-.12.3-.16.12-.04.25-.06.38-.06.24,0,.46.06.65.17.19.11.34.27.45.47.11.2.16.43.16.68s-.06.48-.17.68c-.11.2-.27.35-.46.47-.2.11-.42.17-.67.17ZM51.02,127.74c-.25,0-.48-.04-.68-.13-.2-.09-.36-.21-.47-.36-.12-.16-.18-.34-.19-.55h.49c.01.13.05.24.13.33.08.09.18.16.3.21.12.05.26.07.41.07.17,0,.32-.03.45-.09.13-.06.23-.14.31-.25s.11-.23.11-.37c0-.15-.04-.27-.11-.38-.07-.11-.18-.2-.32-.26-.14-.06-.31-.09-.51-.09h-.32v-.42h.32c.16,0,.29-.03.41-.09.12-.06.21-.14.28-.24.07-.1.1-.22.1-.36s-.03-.25-.09-.35c-.06-.1-.14-.18-.25-.23-.11-.06-.23-.08-.38-.08-.14,0-.26.02-.39.07-.12.05-.22.12-.29.21-.08.09-.12.2-.12.34h-.46c0-.21.07-.39.19-.54.12-.16.27-.28.46-.37.19-.09.4-.13.63-.13.24,0,.45.05.63.15.17.1.31.23.4.39.09.16.14.33.14.52,0,.22-.06.41-.18.57-.12.16-.27.27-.47.33v.03c.25.04.44.15.58.32.14.17.21.38.21.63,0,.21-.06.41-.18.58-.12.17-.27.3-.47.4-.2.1-.43.15-.68.15ZM53.15,127.68v-.35l1.3-1.43c.15-.17.28-.31.38-.44.1-.12.17-.24.22-.35.05-.11.07-.23.07-.35,0-.14-.03-.26-.1-.36-.07-.1-.16-.18-.27-.24-.11-.06-.24-.08-.39-.08-.15,0-.28.03-.4.09-.11.06-.2.15-.26.26-.06.11-.09.24-.09.39h-.46c0-.23.05-.43.16-.61.11-.17.25-.31.44-.41.19-.1.39-.15.62-.15s.44.05.62.15c.18.1.32.23.42.4.1.17.15.35.15.55,0,.15-.03.29-.08.43-.05.14-.14.29-.27.46-.13.17-.3.37-.53.62l-.89.95v.03h1.84v.42h-2.49ZM61.21,124.97h-.48c-.03-.14-.08-.26-.15-.36-.07-.1-.15-.19-.25-.26-.1-.07-.21-.13-.33-.16-.12-.04-.25-.05-.38-.05-.24,0-.46.06-.65.18-.19.12-.35.3-.46.53-.11.24-.17.52-.17.87s.06.63.17.87c.11.24.27.41.46.53.19.12.41.18.65.18.13,0,.26-.02.38-.05.12-.04.23-.09.33-.16.1-.07.19-.16.25-.26.07-.11.12-.23.15-.36h.48c-.04.2-.1.38-.2.54-.1.16-.21.3-.35.41-.14.11-.3.2-.48.25-.17.06-.36.09-.56.09-.34,0-.64-.08-.9-.25-.26-.16-.47-.4-.62-.7-.15-.3-.23-.66-.23-1.08s.08-.78.23-1.08.36-.54.62-.7.56-.25.9-.25c.2,0,.39.03.56.09.18.06.34.14.48.25.14.11.26.25.35.41.1.16.16.34.2.54ZM25.39,132.57h-.48c-.03-.14-.08-.26-.15-.36-.07-.1-.15-.19-.25-.26-.1-.07-.21-.13-.33-.16-.12-.04-.25-.05-.38-.05-.24,0-.46.06-.65.18-.19.12-.35.3-.46.53-.11.24-.17.52-.17.87s.06.63.17.87c.11.24.27.41.46.53.19.12.41.18.65.18.13,0,.26-.02.38-.05.12-.04.23-.09.33-.16.1-.07.19-.16.25-.26.07-.11.12-.23.15-.36h.48c-.04.2-.1.38-.2.54-.1.16-.21.3-.36.41-.14.11-.3.2-.48.25-.17.06-.36.09-.56.09-.34,0-.64-.08-.9-.25-.26-.16-.47-.4-.62-.7-.15-.3-.23-.66-.23-1.08s.08-.78.23-1.08.36-.54.62-.7c.26-.16.56-.25.9-.25.2,0,.39.03.56.09.18.06.34.14.48.25.14.11.26.25.36.41.1.16.16.34.2.54ZM26.16,131.34h.57l1.34,3.28h.05l1.34-3.28h.57v3.95h-.45v-3h-.04l-1.23,3h-.43l-1.23-3h-.04v3h-.45v-3.95ZM30.66,131.34h.55l1.1,1.84h.05l1.1-1.84h.55l-1.43,2.32v1.63h-.48v-1.63l-1.43-2.32ZM34.61,135.29v-3.95h.48v1.96h.05l1.78-1.96h.63l-1.66,1.78,1.66,2.17h-.58l-1.37-1.84-.49.56v1.28h-.48ZM38.43,134.79c-.1,0-.18-.03-.25-.1-.07-.07-.1-.15-.1-.25s.03-.18.1-.25c.07-.07.15-.1.25-.1s.18.03.25.1c.07.07.1.15.1.25,0,.06-.02.12-.05.17-.03.05-.07.1-.13.13-.05.03-.11.05-.17.05ZM38.43,132.79c-.1,0-.18-.03-.25-.1-.07-.07-.1-.15-.1-.25s.03-.18.1-.25c.07-.07.15-.1.25-.1s.18.03.25.1c.07.07.1.15.1.25,0,.06-.02.12-.05.17-.03.05-.07.1-.13.13-.05.03-.11.05-.17.05ZM42.38,135.34c-.26,0-.5-.05-.7-.14-.2-.1-.36-.23-.47-.39-.11-.17-.17-.36-.17-.57,0-.17.03-.32.1-.46.07-.14.16-.26.27-.36.12-.1.25-.16.39-.18v-.02c-.19-.05-.34-.15-.45-.32-.11-.16-.17-.35-.17-.56,0-.2.05-.38.15-.54s.24-.28.42-.37c.18-.09.39-.14.62-.14s.43.05.61.14c.18.09.32.22.42.37.1.16.16.34.16.54,0,.21-.06.4-.17.56-.11.16-.26.27-.45.32v.02c.14.03.27.09.39.18.11.1.21.21.27.36.07.14.1.3.1.46,0,.21-.06.4-.17.57-.11.17-.27.3-.47.39-.2.09-.43.14-.7.14ZM42.38,134.92c.18,0,.33-.03.46-.09.13-.06.23-.14.3-.25.07-.11.11-.23.11-.37,0-.15-.04-.28-.12-.4-.08-.11-.18-.2-.31-.27-.13-.07-.28-.1-.45-.1s-.32.03-.45.1c-.13.07-.23.16-.31.27-.07.11-.11.25-.11.4,0,.14.03.26.1.37.07.11.17.19.3.25.13.06.29.09.47.09ZM42.38,133.04c.14,0,.27-.03.38-.08.11-.06.2-.14.26-.24.06-.1.1-.22.1-.36,0-.13-.03-.25-.09-.35-.06-.1-.15-.18-.26-.23-.11-.06-.24-.08-.38-.08s-.28.03-.39.08c-.11.05-.2.13-.26.23-.06.1-.09.22-.09.35,0,.14.03.26.09.36.06.1.15.18.26.24.11.06.24.08.38.08ZM45.75,135.34c-.29,0-.54-.08-.74-.24-.2-.16-.36-.39-.47-.69-.11-.3-.16-.67-.16-1.1s.05-.79.16-1.09c.11-.3.27-.54.47-.69.21-.16.45-.24.74-.24s.53.08.74.24c.21.16.36.39.47.69.11.3.16.67.16,1.09s-.05.8-.16,1.1c-.11.3-.26.53-.47.69-.2.16-.45.24-.74.24ZM45.75,134.92c.29,0,.51-.14.67-.42.16-.28.24-.67.24-1.19,0-.34-.04-.63-.11-.87-.07-.24-.18-.42-.31-.55-.14-.13-.3-.19-.49-.19-.29,0-.51.14-.67.42-.16.28-.24.68-.24,1.19,0,.34.04.63.11.87.07.24.18.42.31.55.14.12.3.19.49.19ZM48.4,134.75l-.03.21c-.02.15-.06.3-.1.47-.04.17-.09.32-.14.47-.05.15-.09.27-.12.35h-.35c.02-.08.04-.19.07-.33.03-.13.05-.29.08-.45.03-.17.05-.34.07-.51l.02-.22h.49ZM50.89,135.29l1.77-3.5v-.03h-2.04v-.42h2.53v.45l-1.76,3.5h-.5ZM55.08,135.34c-.29,0-.54-.08-.74-.24-.2-.16-.36-.39-.47-.69-.11-.3-.16-.67-.16-1.1s.05-.79.16-1.09c.11-.3.27-.54.47-.69.21-.16.45-.24.74-.24s.53.08.74.24c.21.16.36.39.47.69.11.3.16.67.16,1.09s-.05.8-.16,1.1c-.11.3-.26.53-.47.69-.2.16-.45.24-.74.24ZM55.08,134.92c.29,0,.51-.14.67-.42.16-.28.24-.67.24-1.19,0-.34-.04-.63-.11-.87-.07-.24-.18-.42-.31-.55-.14-.13-.3-.19-.49-.19-.29,0-.51.14-.67.42-.16.28-.24.68-.24,1.19,0,.34.04.63.11.87.07.24.18.42.31.55.14.12.3.19.49.19ZM57.73,134.75l-.03.21c-.02.15-.06.3-.1.47-.04.17-.09.32-.14.47-.05.15-.09.27-.12.35h-.35c.02-.08.04-.19.07-.33.03-.13.05-.29.08-.45.03-.17.05-.34.07-.51l.02-.22h.49ZM61.41,135.34c-.16,0-.32-.03-.49-.09-.16-.06-.31-.16-.44-.3-.13-.14-.24-.33-.32-.57-.08-.24-.12-.55-.12-.91s.03-.66.1-.93c.07-.27.16-.5.29-.69.12-.19.28-.33.45-.42.18-.1.38-.14.6-.14s.42.04.59.13c.17.09.32.21.42.37.11.16.18.34.21.54h-.47c-.04-.18-.13-.32-.25-.44-.13-.12-.29-.18-.5-.18-.31,0-.55.13-.72.4-.17.27-.26.64-.26,1.12h.03c.07-.11.16-.2.26-.28.1-.08.21-.14.33-.18.12-.04.25-.06.38-.06.23,0,.43.06.62.17.19.11.34.27.45.47.11.2.17.42.17.68s-.05.47-.16.67c-.11.2-.26.36-.46.48-.2.12-.43.18-.69.17ZM61.41,134.92c.16,0,.31-.04.44-.12.13-.08.23-.19.31-.33.08-.14.11-.29.11-.46s-.04-.31-.11-.45c-.07-.14-.17-.24-.3-.32-.13-.08-.27-.12-.43-.12-.12,0-.24.02-.34.07-.11.05-.2.11-.28.2-.08.08-.14.18-.19.29-.05.11-.07.22-.07.34,0,.16.04.3.11.44.07.14.18.25.3.33.13.08.28.13.44.13ZM64.78,135.34c-.29,0-.54-.08-.74-.24-.2-.16-.36-.39-.47-.69-.11-.3-.16-.67-.16-1.1s.05-.79.16-1.09c.11-.3.27-.54.47-.69.21-.16.45-.24.74-.24s.53.08.74.24c.21.16.36.39.47.69.11.3.16.67.16,1.09s-.05.8-.16,1.1c-.11.3-.26.53-.47.69-.2.16-.45.24-.74.24ZM64.78,134.92c.29,0,.51-.14.67-.42.16-.28.24-.67.24-1.19,0-.34-.04-.63-.11-.87-.07-.24-.18-.42-.31-.55-.13-.13-.3-.19-.49-.19-.29,0-.51.14-.67.42-.16.28-.24.68-.24,1.19,0,.34.04.63.11.87.07.24.18.42.31.55.14.12.3.19.49.19ZM67.43,134.75l-.03.21c-.02.15-.06.3-.1.47-.04.17-.09.32-.14.47-.05.15-.09.27-.12.35h-.35c.02-.08.04-.19.07-.33.03-.13.05-.29.08-.45.03-.17.05-.34.07-.51l.02-.22h.49ZM69.92,135.29l1.77-3.5v-.03h-2.04v-.42h2.53v.45l-1.76,3.5h-.5ZM74.1,135.34c-.29,0-.54-.08-.74-.24-.2-.16-.36-.39-.47-.69-.11-.3-.16-.67-.16-1.1s.05-.79.16-1.09c.11-.3.27-.54.47-.69.21-.16.45-.24.74-.24s.53.08.74.24c.21.16.36.39.47.69.11.3.16.67.16,1.09s-.05.8-.16,1.1c-.11.3-.26.53-.47.69-.2.16-.45.24-.74.24ZM74.1,134.92c.29,0,.51-.14.67-.42.16-.28.24-.67.24-1.19,0-.34-.04-.63-.11-.87-.07-.24-.18-.42-.31-.55-.13-.13-.3-.19-.49-.19-.29,0-.51.14-.67.42-.16.28-.24.68-.24,1.19,0,.34.04.63.11.87.07.24.18.42.31.55.14.12.3.19.49.19ZM22.21,142.9v-3.95h1.34c.31,0,.56.05.76.16.2.1.34.25.44.43.1.18.14.39.14.62s-.05.44-.14.62c-.1.18-.24.32-.44.42-.2.1-.45.15-.75.15h-1.08v-.43h1.07c.21,0,.38-.03.51-.09.13-.06.22-.15.28-.26.06-.11.09-.25.09-.41s-.03-.3-.09-.41c-.06-.12-.15-.21-.28-.27-.13-.07-.3-.1-.52-.1h-.84v3.53h-.48ZM24.07,141.12l.97,1.78h-.56l-.96-1.78h.54ZM28.39,140.18c-.04-.13-.1-.25-.17-.35-.07-.1-.15-.19-.25-.27-.09-.07-.2-.13-.32-.17-.12-.04-.25-.06-.39-.06-.23,0-.45.06-.64.18-.19.12-.34.3-.46.53-.11.24-.17.52-.17.87s.06.63.17.87c.11.24.27.41.46.53.2.12.42.18.66.18.23,0,.43-.05.6-.15.17-.1.31-.24.41-.41.1-.18.15-.39.15-.63l.15.03h-1.19v-.42h1.5v.42c0,.33-.07.61-.21.85-.14.24-.33.43-.57.56-.24.13-.52.2-.83.2-.35,0-.66-.08-.92-.25-.26-.16-.47-.4-.62-.7-.15-.3-.22-.66-.22-1.08,0-.31.04-.59.13-.84.08-.25.2-.46.36-.64.15-.18.34-.31.55-.41.21-.09.44-.14.7-.14.21,0,.4.03.58.09.18.06.34.15.48.26.14.11.26.25.36.41.1.16.16.33.2.52h-.49ZM29.73,142.9v-3.95h1.38c.28,0,.5.05.68.14.18.09.31.22.4.38.09.16.13.33.13.53,0,.17-.03.31-.09.42-.06.11-.14.2-.24.26-.1.06-.2.11-.31.14v.04c.12,0,.24.05.36.13.12.08.22.19.31.33.08.14.12.32.12.53s-.04.38-.14.53c-.09.16-.23.28-.43.38-.19.09-.45.14-.76.14h-1.43ZM30.2,142.47h.95c.31,0,.53-.06.67-.18.13-.12.2-.27.2-.44,0-.13-.03-.26-.1-.37-.07-.11-.17-.21-.29-.27-.13-.07-.28-.1-.45-.1h-.97v1.37ZM30.2,140.68h.89c.14,0,.27-.03.39-.08.12-.06.21-.14.28-.24.07-.1.1-.22.1-.36,0-.17-.06-.32-.18-.44-.12-.12-.31-.18-.58-.18h-.9v1.31ZM33.53,142.39c-.1,0-.18-.03-.25-.1-.07-.07-.1-.15-.1-.25s.03-.18.1-.25c.07-.07.15-.1.25-.1s.18.03.25.1c.07.07.1.15.1.25,0,.06-.02.12-.05.17-.03.05-.07.1-.13.13-.05.03-.11.05-.17.05ZM33.53,140.39c-.1,0-.18-.03-.25-.1-.07-.07-.1-.15-.1-.25s.03-.18.1-.25c.07-.07.15-.1.25-.1s.18.03.25.1c.07.07.1.15.1.25,0,.06-.02.12-.05.17-.03.05-.07.1-.13.13-.05.03-.11.05-.17.05ZM36.21,142.9v-.35l1.3-1.43c.15-.17.28-.31.38-.44.1-.12.17-.24.22-.35.05-.11.07-.23.07-.35,0-.14-.03-.26-.1-.36-.07-.1-.16-.18-.27-.24-.11-.06-.24-.08-.39-.08-.15,0-.28.03-.4.09-.11.06-.2.15-.26.26-.06.11-.09.24-.09.39h-.46c0-.23.05-.43.16-.61.11-.17.25-.31.44-.41.19-.1.39-.15.62-.15s.44.05.62.15c.18.1.32.23.42.4.1.17.15.35.15.55,0,.15-.03.29-.08.43-.05.14-.14.29-.27.46-.13.17-.3.37-.53.62l-.89.95v.03h1.84v.42h-2.49ZM39.33,142.09v-.39l1.74-2.75h.29v.61h-.19l-1.31,2.08v.03h2.34v.42h-2.86ZM41.19,142.9v-3.95h.46v3.95h-.46ZM43.41,142.36l-.03.21c-.02.15-.06.3-.1.47-.04.17-.09.32-.14.47-.05.15-.09.27-.12.35h-.35c.02-.08.04-.19.07-.33.03-.13.05-.29.08-.45.03-.17.05-.34.07-.51l.02-.22h.49ZM47.11,142.95c-.25,0-.48-.04-.68-.13-.2-.09-.36-.21-.47-.36-.12-.16-.18-.34-.19-.55h.49c.01.13.05.24.13.33.08.09.18.16.3.21.12.05.26.07.41.07.17,0,.32-.03.45-.09s.23-.14.31-.25c.07-.11.11-.23.11-.37,0-.15-.04-.27-.11-.38-.07-.11-.18-.2-.32-.26s-.31-.09-.51-.09h-.32v-.42h.32c.16,0,.29-.03.41-.09.12-.06.21-.14.28-.24.07-.1.1-.22.1-.36s-.03-.25-.09-.35c-.06-.1-.14-.18-.25-.23-.11-.06-.23-.08-.38-.08-.14,0-.26.03-.39.07-.12.05-.22.12-.29.21-.08.09-.12.2-.12.34h-.46c0-.21.07-.39.19-.54.12-.16.27-.28.46-.37.19-.09.4-.13.63-.13.24,0,.45.05.63.15.17.1.31.23.4.39.09.16.14.33.14.52,0,.22-.06.41-.18.57-.12.16-.27.27-.47.33v.03c.25.04.44.15.58.32.14.17.21.38.21.63,0,.21-.06.41-.18.58-.12.17-.27.3-.47.4-.2.1-.43.15-.68.15ZM49.23,142.9v-.35l1.3-1.43c.15-.17.28-.31.38-.44.1-.12.17-.24.22-.35.05-.11.07-.23.07-.35,0-.14-.03-.26-.1-.36-.07-.1-.16-.18-.27-.24-.11-.06-.24-.08-.39-.08-.15,0-.28.03-.4.09-.11.06-.2.15-.26.26-.06.11-.09.24-.09.39h-.46c0-.23.05-.43.16-.61.11-.17.25-.31.44-.41.19-.1.39-.15.62-.15s.44.05.62.15c.18.1.32.23.42.4.1.17.15.35.15.55,0,.15-.03.29-.08.43-.05.14-.14.29-.27.46-.13.17-.3.37-.53.62l-.89.95v.03h1.84v.42h-2.49ZM53.21,142.36l-.03.21c-.02.15-.06.3-.1.47-.04.17-.09.32-.14.47-.05.15-.09.27-.12.35h-.35c.02-.08.04-.19.07-.33.03-.13.05-.29.08-.45.03-.17.05-.34.07-.51l.02-.22h.49ZM55.48,142.09v-.39l1.74-2.75h.29v.61h-.19l-1.31,2.08v.03h2.34v.42h-2.86ZM57.34,142.9v-3.95h.46v3.95h-.46ZM60.35,142.95c-.29,0-.54-.08-.74-.24-.2-.16-.36-.39-.47-.69-.11-.3-.16-.67-.16-1.1s.05-.79.16-1.09c.11-.3.27-.54.47-.69.21-.16.45-.24.74-.24s.53.08.74.24c.21.16.36.39.47.69.11.3.16.67.16,1.09s-.05.8-.16,1.1c-.11.3-.26.53-.47.69-.2.16-.45.24-.74.24ZM60.35,142.53c.29,0,.51-.14.67-.42.16-.28.24-.67.24-1.19,0-.34-.04-.63-.11-.87-.07-.24-.18-.42-.31-.55-.14-.13-.3-.19-.49-.19-.29,0-.51.14-.67.42-.16.28-.24.68-.24,1.19,0,.34.04.63.11.87.07.24.18.42.31.55.14.12.3.19.49.19ZM22.21,150.5v-3.95h.48v1.76h2.11v-1.76h.48v3.95h-.48v-1.77h-2.11v1.77h-.48ZM28.39,147.54c-.02-.2-.12-.35-.28-.46-.16-.11-.37-.16-.61-.16-.17,0-.33.03-.46.08-.13.06-.23.13-.3.23-.07.1-.11.21-.11.34,0,.11.03.2.08.27.05.07.12.14.2.19.08.05.16.09.25.12.09.03.17.06.24.08l.4.11c.1.03.22.06.34.11.13.05.25.11.36.19.12.08.21.19.29.31.08.13.11.28.11.47,0,.21-.06.41-.17.58-.11.17-.27.31-.49.41-.21.1-.47.15-.77.15-.28,0-.53-.05-.74-.14-.21-.09-.37-.22-.49-.38-.12-.16-.18-.35-.2-.57h.49c.01.15.06.27.15.37.09.1.2.17.34.22.14.05.28.07.44.07.18,0,.35-.03.49-.09.15-.06.26-.14.35-.25.08-.11.13-.23.13-.38,0-.13-.04-.24-.11-.32-.07-.08-.17-.15-.29-.2-.12-.05-.25-.1-.39-.14l-.49-.14c-.31-.09-.55-.22-.73-.38-.18-.16-.27-.38-.27-.65,0-.22.06-.41.18-.58.12-.17.28-.29.49-.39.2-.09.43-.14.68-.14s.48.05.68.14c.2.09.36.21.47.37.12.16.18.34.19.53h-.46ZM29.7,150.5v-3.95h1.38c.28,0,.5.05.68.14.18.09.31.22.4.38.09.16.13.33.13.53,0,.17-.03.31-.09.42-.06.11-.14.2-.24.26-.1.06-.2.11-.31.14v.04c.12,0,.24.05.36.13s.22.19.31.33c.08.14.12.32.12.53s-.05.38-.14.53c-.09.16-.23.28-.43.38-.19.09-.45.14-.76.14h-1.43ZM30.18,150.08h.95c.31,0,.53-.06.67-.18.13-.12.2-.27.2-.44,0-.13-.03-.26-.1-.37-.07-.11-.17-.21-.29-.27-.13-.07-.28-.1-.45-.1h-.97v1.37ZM30.18,148.29h.89c.14,0,.27-.03.39-.08.12-.06.21-.14.28-.24.07-.1.1-.22.1-.36,0-.17-.06-.32-.18-.44-.12-.12-.31-.18-.57-.18h-.9v1.31ZM33.5,150c-.1,0-.18-.03-.25-.1-.07-.07-.1-.15-.1-.25s.03-.18.1-.25c.07-.07.15-.1.25-.1s.18.03.25.1c.07.07.1.15.1.25,0,.06-.02.12-.05.17-.03.05-.07.1-.13.13-.05.03-.11.05-.17.05ZM33.5,148c-.1,0-.18-.03-.25-.1-.07-.07-.1-.15-.1-.25s.03-.18.1-.25c.07-.07.15-.1.25-.1s.18.03.25.1c.07.07.1.15.1.25,0,.06-.02.12-.05.17-.03.05-.07.1-.13.13-.05.03-.11.05-.17.05ZM36.19,150.5v-.35l1.3-1.43c.15-.17.28-.31.38-.44.1-.12.17-.24.22-.35.05-.11.07-.23.07-.35,0-.14-.03-.26-.1-.36-.07-.1-.16-.18-.27-.24-.11-.06-.24-.08-.39-.08-.15,0-.28.03-.4.09-.11.06-.2.15-.26.26-.06.11-.09.24-.09.39h-.46c0-.23.05-.43.16-.61.11-.17.25-.31.44-.41.19-.1.39-.15.62-.15s.44.05.62.15c.18.1.32.23.42.4.1.17.15.35.15.55,0,.15-.03.29-.08.43-.05.14-.14.29-.27.46-.13.17-.3.37-.53.62l-.89.95v.03h1.84v.42h-2.49ZM40.87,146.55v3.95h-.48v-3.45h-.02l-.96.64v-.49l.99-.66h.48ZM43.29,150.56c-.29,0-.54-.08-.74-.24-.2-.16-.36-.39-.47-.69-.11-.3-.16-.67-.16-1.1s.05-.79.16-1.09c.11-.3.27-.54.47-.69.21-.16.45-.24.74-.24s.53.08.74.24c.21.16.36.39.47.69.11.3.16.67.16,1.09s-.05.8-.16,1.1c-.11.3-.26.53-.47.69-.2.16-.45.24-.74.24ZM43.29,150.13c.29,0,.51-.14.67-.42.16-.28.24-.67.24-1.19,0-.34-.04-.63-.11-.87-.07-.24-.18-.42-.31-.55-.14-.13-.3-.19-.49-.19-.29,0-.51.14-.67.42-.16.28-.24.68-.24,1.19,0,.34.04.63.11.87.07.24.18.42.31.55.14.12.3.19.49.19ZM45.95,149.96l-.03.21c-.02.15-.06.3-.1.47-.04.17-.09.32-.14.47-.05.15-.09.27-.12.35h-.35c.02-.08.04-.19.07-.33.03-.13.05-.29.08-.45.03-.17.05-.34.07-.51l.02-.22h.49ZM48.22,149.69v-.39l1.74-2.75h.29v.61h-.19l-1.31,2.08v.03h2.34v.42h-2.86ZM50.08,150.5v-3.95h.46v3.95h-.46ZM53.09,150.56c-.29,0-.54-.08-.74-.24-.2-.16-.36-.39-.47-.69-.11-.3-.16-.67-.16-1.1s.05-.79.16-1.09c.11-.3.27-.54.47-.69.21-.16.45-.24.74-.24s.53.08.74.24c.21.16.36.39.47.69.11.3.16.67.16,1.09s-.05.8-.16,1.1c-.11.3-.26.53-.47.69-.2.16-.45.24-.74.24ZM53.09,150.13c.29,0,.51-.14.67-.42.16-.28.24-.67.24-1.19,0-.34-.04-.63-.11-.87-.07-.24-.18-.42-.31-.55-.14-.13-.3-.19-.49-.19-.29,0-.51.14-.67.42-.16.28-.24.68-.24,1.19,0,.34.04.63.11.87.07.24.18.42.31.55.14.12.3.19.49.19ZM55.74,149.96l-.03.21c-.02.15-.05.3-.1.47-.04.17-.09.32-.14.47-.05.15-.09.27-.12.35h-.35c.02-.08.04-.19.07-.33.03-.13.05-.29.08-.45.03-.17.05-.34.07-.51l.02-.22h.49ZM59.5,146.55v3.95h-.48v-3.45h-.02l-.96.64v-.49l.99-.66h.48ZM61.94,150.56c-.16,0-.32-.03-.49-.09-.16-.06-.31-.16-.44-.3-.13-.14-.24-.33-.32-.57-.08-.24-.12-.55-.12-.91s.03-.66.1-.93c.07-.27.16-.5.29-.69.12-.19.27-.33.45-.42.18-.1.38-.14.6-.14s.42.04.59.13c.17.09.32.21.42.37.11.16.18.34.21.54h-.47c-.04-.18-.13-.32-.25-.44-.13-.12-.29-.18-.5-.18-.31,0-.55.13-.72.4-.17.27-.26.64-.26,1.12h.03c.07-.11.16-.2.26-.28.1-.08.21-.14.33-.18.12-.04.25-.06.38-.06.23,0,.43.06.62.17.19.11.34.27.45.47.11.2.17.42.17.68s-.05.47-.16.67c-.11.2-.26.36-.46.48-.2.12-.43.18-.69.17ZM61.94,150.13c.16,0,.31-.04.44-.12.13-.08.23-.19.31-.33.08-.14.11-.29.11-.46s-.04-.31-.11-.45c-.07-.14-.17-.24-.3-.32-.13-.08-.27-.12-.43-.12-.12,0-.24.02-.34.07-.11.05-.2.11-.28.2-.08.08-.14.18-.19.29-.05.11-.07.22-.07.34,0,.16.04.3.11.44.07.14.18.25.3.33.13.08.28.13.44.13Z"/>
    <path class="cls-8" d="M22.4,45.64v-5.53h.67v2.46h2.95v-2.46h.67v5.53h-.67v-2.47h-2.95v2.47h-.67ZM28.03,45.64v-5.53h3.34v.59h-2.67v1.87h2.5v.59h-2.5v1.88h2.71v.59h-3.38ZM32.9,40.11l1.43,2.3h.04l1.43-2.3h.79l-1.74,2.77,1.74,2.77h-.79l-1.43-2.26h-.04l-1.43,2.26h-.79l1.78-2.77-1.78-2.77h.79ZM37.84,44.93c-.13,0-.25-.05-.34-.14-.1-.1-.14-.21-.14-.34s.05-.25.14-.34c.1-.1.21-.14.34-.14s.25.05.34.14c.1.1.14.21.14.34,0,.09-.02.17-.07.24-.04.07-.1.13-.18.18-.07.04-.15.06-.24.06ZM37.84,42.13c-.13,0-.25-.05-.34-.14-.1-.1-.14-.21-.14-.34s.05-.25.14-.34c.1-.1.21-.14.34-.14s.25.05.34.14c.1.1.14.21.14.34,0,.09-.02.17-.07.24-.04.07-.1.13-.18.18-.07.04-.15.06-.24.06ZM43.67,45.64l.91-5.53h.54l-.91,5.53h-.54ZM41.15,44.11l.09-.54h4.13l-.09.54h-4.13ZM41.73,45.64l.91-5.53h.54l-.91,5.53h-.54ZM41.48,42.18l.09-.54h4.13l-.09.54h-4.13ZM48.34,40.11v5.53h-.67v-4.83h-.03l-1.35.9v-.68l1.38-.92h.67ZM51.7,45.72c-.37,0-.7-.07-.98-.2-.28-.13-.5-.32-.66-.55-.16-.23-.24-.5-.23-.8,0-.23.04-.45.14-.65.09-.2.22-.37.38-.5.16-.14.35-.22.55-.26v-.03c-.26-.07-.48-.22-.63-.45-.16-.23-.23-.49-.23-.79,0-.28.07-.53.21-.75.14-.22.34-.4.59-.52.25-.13.54-.19.87-.19s.61.06.86.19c.25.13.45.3.59.52.15.22.22.47.22.75,0,.29-.08.56-.24.79-.16.23-.36.38-.62.45v.03c.2.04.38.12.54.26.16.13.29.3.38.5.1.2.14.41.15.65,0,.3-.08.57-.24.8-.16.23-.38.42-.66.55-.28.13-.61.2-.98.2ZM51.7,45.12c.25,0,.47-.04.65-.12.18-.08.32-.2.42-.34.1-.15.15-.32.15-.52,0-.21-.06-.39-.16-.55-.11-.16-.25-.29-.43-.38-.18-.09-.39-.14-.62-.14s-.45.05-.63.14c-.18.09-.33.22-.43.38-.1.16-.16.34-.15.55,0,.2.05.37.14.52.1.15.24.26.42.34.18.08.4.12.65.12ZM51.7,42.5c.2,0,.37-.04.53-.12.15-.08.28-.19.36-.33.09-.14.13-.31.14-.5,0-.19-.05-.35-.13-.49-.09-.14-.21-.25-.36-.32-.15-.08-.33-.12-.53-.12s-.39.04-.54.12c-.15.08-.27.18-.36.32-.08.14-.13.3-.12.49,0,.19.04.36.13.5.09.14.21.25.36.33.15.08.33.12.53.12ZM54.62,45.64v-.49l1.83-2c.21-.23.39-.44.53-.61.14-.17.24-.34.31-.49.07-.15.1-.32.1-.49,0-.19-.05-.36-.14-.51-.09-.14-.22-.25-.38-.33-.16-.08-.34-.12-.54-.12-.21,0-.4.04-.56.13-.16.09-.28.21-.37.36-.08.16-.13.34-.13.55h-.64c0-.32.07-.61.22-.85.15-.24.35-.44.61-.57.26-.14.55-.21.87-.21s.61.07.86.21c.25.14.45.32.59.55.14.23.21.49.21.78,0,.2-.04.4-.11.6-.07.19-.2.41-.38.65-.18.24-.43.52-.74.86l-1.24,1.33v.04h2.57v.59h-3.49ZM61.03,45.72c-.41,0-.75-.11-1.04-.33-.29-.22-.51-.55-.66-.97-.15-.42-.23-.94-.23-1.54s.08-1.11.23-1.53c.15-.42.37-.75.66-.97.29-.23.63-.34,1.04-.34s.75.11,1.03.34c.29.22.51.55.66.97.15.42.23.93.23,1.53s-.08,1.11-.23,1.54c-.15.42-.37.75-.66.97-.29.22-.63.33-1.04.33ZM61.03,45.12c.4,0,.72-.19.94-.58.22-.39.34-.94.34-1.66,0-.48-.05-.89-.15-1.22-.1-.34-.25-.59-.44-.77-.19-.18-.42-.26-.68-.26-.4,0-.71.2-.94.59-.22.39-.34.95-.34,1.67,0,.48.05.89.15,1.22.1.33.25.59.43.76.19.17.42.26.69.26ZM63.98,45.64v-.49l1.83-2c.21-.23.39-.44.53-.61.14-.17.24-.34.31-.49.07-.15.1-.32.1-.49,0-.19-.05-.36-.14-.51-.09-.14-.22-.25-.38-.33s-.34-.12-.54-.12c-.21,0-.4.04-.56.13-.16.09-.28.21-.36.36-.08.16-.13.34-.13.55h-.64c0-.32.07-.61.22-.85s.35-.44.61-.57c.26-.14.55-.21.87-.21s.61.07.86.21c.25.14.45.32.59.55.14.23.21.49.21.78,0,.2-.04.4-.11.6-.07.19-.2.41-.38.65-.18.24-.43.52-.74.86l-1.24,1.33v.04h2.57v.59h-3.49ZM70.36,45.72c-.37,0-.7-.07-.98-.2-.28-.13-.5-.32-.66-.55-.16-.23-.24-.5-.23-.8,0-.23.04-.45.14-.65.09-.2.22-.37.38-.5.16-.14.35-.22.55-.26v-.03c-.27-.07-.48-.22-.63-.45-.16-.23-.23-.49-.23-.79,0-.28.07-.53.21-.75.14-.22.34-.4.59-.52.25-.13.54-.19.87-.19s.61.06.86.19c.25.13.45.3.59.52.15.22.22.47.22.75,0,.29-.08.56-.24.79-.16.23-.36.38-.62.45v.03c.2.04.38.12.54.26.16.13.29.3.38.5.1.2.14.41.15.65,0,.3-.08.57-.24.8-.16.23-.38.42-.66.55-.28.13-.61.2-.98.2ZM70.36,45.12c.25,0,.47-.04.65-.12.18-.08.32-.2.42-.34.1-.15.15-.32.15-.52,0-.21-.06-.39-.16-.55s-.25-.29-.43-.38c-.18-.09-.39-.14-.62-.14s-.45.05-.63.14c-.18.09-.33.22-.44.38-.1.16-.16.34-.15.55,0,.2.05.37.14.52.1.15.24.26.42.34.18.08.4.12.65.12ZM70.36,42.5c.2,0,.37-.04.53-.12.15-.08.28-.19.36-.33.09-.14.13-.31.13-.5,0-.19-.05-.35-.13-.49-.09-.14-.21-.25-.36-.32-.15-.08-.33-.12-.53-.12s-.39.04-.54.12c-.15.08-.27.18-.36.32-.08.14-.13.3-.12.49,0,.19.04.36.13.5.09.14.21.25.36.33.15.08.33.12.53.12Z"/>
    <path class="cls-4" d="M25.13,32.06h-2.44v-7.9h2.55c.77,0,1.42.16,1.97.47.55.31.96.77,1.25,1.35.29.59.44,1.29.44,2.11s-.15,1.53-.44,2.13c-.29.59-.72,1.05-1.28,1.37-.56.32-1.24.47-2.05.47ZM23.65,31.21h1.42c.65,0,1.19-.13,1.62-.38s.75-.61.96-1.08c.21-.47.32-1.02.32-1.66s-.1-1.19-.31-1.65c-.21-.46-.52-.82-.93-1.07-.41-.25-.93-.37-1.55-.37h-1.53v6.21ZM32.86,32.18c-.57,0-1.06-.13-1.48-.38-.41-.25-.73-.61-.95-1.07-.22-.46-.33-.99-.33-1.6s.11-1.14.33-1.61c.22-.47.54-.83.93-1.09.4-.26.87-.39,1.4-.39.31,0,.61.05.91.15.3.1.58.27.82.5.25.23.44.53.59.91.15.38.22.84.22,1.4v.39h-4.57v-.79h3.64c0-.33-.07-.63-.2-.9-.13-.26-.32-.47-.56-.62-.24-.15-.53-.23-.86-.23-.36,0-.68.09-.94.27-.26.18-.46.41-.61.69s-.21.59-.21.92v.52c0,.45.08.83.23,1.14.16.31.37.54.65.71.28.16.6.24.97.24.24,0,.46-.03.65-.1.2-.07.36-.17.51-.31.14-.14.25-.31.33-.52l.88.25c-.09.3-.25.56-.47.79-.22.22-.49.4-.81.52-.32.12-.68.19-1.08.19ZM39.19,32.18c-.57,0-1.06-.13-1.48-.38-.41-.25-.73-.61-.95-1.07-.22-.46-.33-.99-.33-1.6s.11-1.14.33-1.61c.22-.47.54-.83.93-1.09.4-.26.87-.39,1.4-.39.31,0,.61.05.91.15.3.1.57.27.82.5.25.23.44.53.59.91.15.38.22.84.22,1.4v.39h-4.57v-.79h3.64c0-.33-.07-.63-.2-.9-.13-.26-.32-.47-.56-.62-.24-.15-.53-.23-.86-.23-.36,0-.68.09-.94.27-.26.18-.46.41-.61.69s-.21.59-.21.92v.52c0,.45.08.83.23,1.14.16.31.37.54.65.71.28.16.6.24.97.24.24,0,.46-.03.65-.1.2-.07.36-.17.51-.31.14-.14.25-.31.33-.52l.88.25c-.09.3-.25.56-.47.79-.22.22-.49.4-.81.52-.32.12-.68.19-1.08.19ZM43.03,34.28v-8.15h.88v.94h.11c.07-.1.16-.23.28-.39.12-.16.29-.31.52-.43.23-.13.53-.19.92-.19.5,0,.94.12,1.32.37.38.25.68.6.89,1.06s.32,1,.32,1.62-.11,1.17-.32,1.63c-.21.46-.51.81-.89,1.07-.38.25-.81.37-1.31.37-.38,0-.69-.06-.91-.19-.23-.13-.41-.27-.53-.44-.12-.16-.22-.3-.29-.41h-.08v3.13h-.91ZM43.92,29.09c0,.45.07.84.2,1.18.13.34.32.61.57.8.25.19.56.29.93.29s.7-.1.95-.3c.26-.2.45-.48.58-.82.13-.34.2-.73.2-1.15s-.06-.79-.19-1.13c-.13-.34-.32-.6-.58-.8-.25-.2-.57-.3-.96-.3s-.68.09-.93.28c-.25.19-.44.45-.57.78-.13.33-.19.72-.19,1.16ZM49.77,32.06v-7.9h4.77v.85h-3.81v2.67h3.57v.85h-3.57v2.69h3.87v.85h-4.83ZM60.99,26.13l-2.19,5.93h-.93l-2.19-5.93h.99l1.64,4.72h.06l1.64-4.72h.99ZM64.39,32.18c-.56,0-1.03-.13-1.44-.39-.4-.26-.71-.62-.93-1.08-.22-.46-.32-.99-.32-1.58s.11-1.13.33-1.59c.22-.46.53-.82.93-1.08.4-.26.87-.39,1.41-.39.42,0,.79.08,1.13.23.33.15.61.37.82.65.21.28.35.6.4.97h-.91c-.07-.27-.22-.51-.46-.72-.24-.21-.56-.32-.96-.32-.35,0-.67.09-.93.28-.26.18-.47.44-.62.78-.15.33-.22.72-.22,1.17s.07.86.22,1.2c.15.34.35.6.62.79.27.19.58.28.94.28.24,0,.45-.04.64-.12.19-.08.36-.2.49-.36.13-.15.23-.34.29-.56h.91c-.05.35-.18.66-.38.95-.2.28-.47.5-.8.66-.33.16-.71.24-1.15.24ZM70.46,32.18c-.54,0-1-.13-1.41-.38-.4-.25-.72-.61-.94-1.07-.22-.46-.34-.99-.34-1.61s.11-1.16.34-1.62c.23-.46.54-.82.94-1.07.4-.25.87-.38,1.41-.38s1,.13,1.4.38c.4.25.72.61.94,1.07.23.46.34,1,.34,1.62s-.11,1.15-.34,1.61c-.22.46-.54.81-.94,1.07-.4.25-.87.38-1.4.38ZM70.46,31.36c.41,0,.74-.1,1-.31.26-.21.46-.48.58-.82.13-.34.19-.71.19-1.1s-.06-.77-.19-1.11c-.13-.34-.32-.62-.58-.83-.26-.21-.6-.32-1-.32s-.74.11-1,.32c-.26.21-.46.49-.58.83-.13.34-.19.71-.19,1.11s.06.76.19,1.1c.13.34.32.61.58.82.26.21.6.31,1,.31ZM74.53,32.06v-5.93h.88v.93h.08c.12-.32.32-.56.6-.74.27-.18.61-.27.99-.27s.72.09.98.27c.26.17.47.42.61.74h.06c.15-.31.38-.55.68-.73.3-.18.67-.27,1.09-.27.53,0,.96.17,1.3.5.34.33.51.84.51,1.54v3.97h-.91v-3.97c0-.44-.12-.75-.36-.94-.24-.19-.52-.28-.84-.28-.42,0-.74.13-.97.38-.23.25-.34.57-.34.95v3.86h-.93v-4.06c0-.34-.11-.61-.33-.81-.22-.21-.5-.31-.85-.31-.24,0-.46.06-.66.19-.2.13-.37.3-.49.52-.12.22-.19.48-.19.77v3.7h-.91ZM84.57,24.15l2.04,3.29h.06l2.04-3.29h1.13l-2.48,3.95,2.48,3.95h-1.13l-2.04-3.23h-.06l-2.04,3.23h-1.13l2.55-3.95-2.55-3.95h1.13Z"/>
    <rect class="cls-1" x="186.91" y="21.73" width="81.5" height="16.3"/>
    <rect class="cls-10" x="186.91" y="38.03" width="81.5" height="16.3"/>
    <rect class="cls-7" x="186.91" y="54.33" width="81.5" height="16.3"/>
    <rect class="cls-5" x="186.91" y="70.63" width="81.5" height="16.3"/>
    <rect class="cls-6" x="186.91" y="86.93" width="81.5" height="16.3"/>
    <rect class="cls-12" x="186.91" y="103.23" width="81.5" height="16.3"/>
    <rect class="cls-11" x="186.91" y="119.53" width="81.5" height="16.3"/>
    <rect class="cls-3" x="186.91" y="135.83" width="81.5" height="16.3"/>
    <path class="cls-4" d="M250.59,28.53v-.42h2.96v.42h-1.24v3.53h-.48v-3.53h-1.24ZM254.23,32.06v-2.96h.46v2.96h-.46ZM254.47,28.6c-.09,0-.17-.03-.23-.09-.06-.06-.09-.13-.09-.22s.03-.16.09-.22c.06-.06.14-.09.23-.09s.16.03.23.09c.06.06.1.13.1.22s-.03.16-.1.22c-.06.06-.14.09-.23.09ZM255.98,30.27v1.78h-.46v-2.96h.44v.46h.04c.07-.15.17-.27.32-.36.14-.09.32-.14.55-.14.2,0,.38.04.53.12.15.08.27.2.35.37.08.16.13.37.13.63v1.88h-.46v-1.85c0-.23-.06-.41-.18-.54-.12-.13-.29-.2-.5-.2-.15,0-.28.03-.39.09-.11.06-.2.16-.27.28-.07.12-.1.27-.1.44ZM259.99,29.09v.39h-1.54v-.39h1.54ZM258.9,28.38h.46v2.82c0,.13.02.23.06.29.04.06.09.11.15.13.06.02.12.03.19.03.05,0,.09,0,.12,0,.03,0,.06-.01.08-.02l.09.41s-.07.02-.13.03c-.06.01-.13.02-.21.02-.13,0-.25-.03-.38-.08-.12-.06-.22-.14-.3-.25-.08-.11-.12-.26-.12-.43v-2.95Z"/>
    <path class="cls-4" d="M251.27,44.35c.16,0,.32.03.49.09.16.06.31.16.44.3.13.14.24.33.32.57.08.24.12.54.12.9s-.03.66-.1.94c-.07.27-.16.5-.29.69-.12.19-.27.33-.45.42-.18.1-.38.14-.6.14s-.42-.04-.59-.13c-.17-.09-.31-.21-.42-.37-.11-.16-.18-.34-.21-.55h.47c.04.18.13.33.25.45.13.12.3.18.5.18.3,0,.55-.13.72-.4.18-.27.27-.64.27-1.13h-.03c-.07.11-.16.2-.26.28-.1.08-.21.14-.33.18-.12.04-.25.06-.39.06-.23,0-.43-.06-.62-.17-.19-.11-.34-.27-.45-.46-.11-.2-.17-.42-.17-.68s.05-.46.16-.66c.11-.2.26-.36.46-.48.2-.12.43-.18.7-.17ZM251.27,44.78c-.16,0-.31.04-.44.12-.13.08-.23.19-.31.32-.07.14-.11.28-.11.45s.04.31.11.45c.07.13.17.24.3.32.13.08.27.12.43.12.12,0,.24-.02.34-.07.11-.05.2-.12.28-.2.08-.08.14-.18.19-.29.05-.11.07-.22.07-.34,0-.15-.04-.3-.11-.43-.07-.14-.17-.24-.3-.33-.13-.08-.28-.13-.44-.13ZM254.69,48.41c-.29,0-.54-.08-.74-.24-.2-.16-.36-.39-.47-.69-.11-.3-.16-.67-.16-1.1s.05-.79.16-1.09c.11-.3.27-.54.47-.69.21-.16.45-.24.74-.24s.53.08.74.24c.21.16.36.39.47.69.11.3.16.67.16,1.09s-.05.8-.16,1.1c-.11.3-.26.53-.47.69-.2.16-.45.24-.74.24ZM254.69,47.99c.29,0,.51-.14.67-.42.16-.28.24-.67.24-1.19,0-.34-.04-.63-.11-.87-.07-.24-.18-.42-.31-.55-.13-.13-.3-.19-.49-.19-.29,0-.51.14-.67.42-.16.28-.24.68-.24,1.19,0,.34.04.63.11.87.07.24.18.42.31.55.14.12.3.19.49.19ZM258.81,47.62v-.21c0-.14.03-.28.09-.4.06-.12.15-.22.26-.29.12-.07.26-.11.42-.11s.31.04.42.11c.11.07.2.17.26.29.06.12.09.25.09.4v.21c0,.14-.03.28-.09.4-.06.12-.14.22-.26.29-.11.07-.25.11-.42.11s-.31-.04-.42-.11c-.11-.07-.2-.17-.26-.29-.06-.12-.09-.25-.09-.4ZM259.2,47.41v.21c0,.12.03.23.08.32.06.09.15.14.29.14s.23-.05.29-.14c.06-.1.09-.2.09-.32v-.21c0-.12-.03-.23-.08-.32-.05-.1-.15-.14-.29-.14s-.23.05-.29.14c-.06.09-.09.2-.09.32ZM256.84,45.35v-.21c0-.14.03-.28.09-.4.06-.12.15-.22.26-.29.12-.07.26-.11.42-.11s.31.04.42.11c.11.07.2.17.26.29.06.12.09.25.09.4v.21c0,.14-.03.28-.09.4-.06.12-.14.22-.26.29-.11.07-.25.11-.42.11s-.31-.04-.42-.11c-.11-.07-.2-.17-.26-.29-.06-.12-.09-.25-.09-.4ZM257.24,45.15v.21c0,.12.03.23.08.32.06.09.15.14.29.14s.23-.05.29-.14c.06-.1.08-.2.08-.32v-.21c0-.12-.03-.23-.08-.32-.05-.1-.15-.14-.29-.14s-.23.05-.29.14c-.06.09-.09.2-.09.32ZM256.99,48.36l2.72-3.95h.44l-2.72,3.95h-.44Z"/>
    <path class="cls-4" d="M250.02,65.2l1.77-3.5v-.03h-2.04v-.42h2.53v.45l-1.76,3.5h-.5ZM254.18,65.25c-.23,0-.43-.04-.61-.13-.18-.09-.33-.21-.44-.37-.11-.16-.17-.34-.18-.54h.46c.02.18.1.33.24.44.15.12.32.17.52.17.16,0,.31-.04.43-.11.13-.08.23-.18.3-.31.07-.13.11-.28.11-.45s-.04-.33-.11-.46c-.07-.14-.18-.24-.31-.32-.13-.08-.28-.12-.45-.12-.12,0-.25.02-.37.06-.13.04-.23.09-.31.14l-.45-.05.24-1.95h2.05v.42h-1.65l-.14,1.16h.02c.08-.06.18-.12.3-.16.12-.04.25-.06.38-.06.24,0,.46.06.65.17.19.11.34.27.45.47.11.2.16.43.16.68s-.06.48-.17.68c-.11.2-.27.35-.46.47-.2.11-.42.17-.67.17ZM258.27,64.46v-.21c0-.14.03-.28.09-.4.06-.12.15-.22.26-.29.12-.07.26-.11.42-.11s.31.04.42.11c.11.07.2.17.26.29.06.12.09.25.09.4v.21c0,.14-.03.28-.09.4-.06.12-.14.22-.26.29-.11.07-.25.11-.42.11s-.31-.04-.42-.11c-.11-.07-.2-.17-.26-.29-.06-.12-.09-.25-.09-.4ZM258.66,64.25v.21c0,.12.03.23.08.32.06.09.15.14.29.14s.23-.05.29-.14c.06-.1.09-.2.09-.32v-.21c0-.12-.03-.23-.08-.32-.05-.1-.15-.14-.29-.14s-.23.05-.29.14c-.06.09-.09.2-.09.32ZM256.3,62.2v-.21c0-.14.03-.28.09-.4.06-.12.15-.22.26-.29.12-.07.26-.11.42-.11s.31.04.42.11c.11.07.2.17.26.29.06.12.09.25.09.4v.21c0,.14-.03.28-.09.4-.06.12-.14.22-.26.29-.11.07-.25.11-.42.11s-.31-.04-.42-.11c-.11-.07-.2-.17-.26-.29-.06-.12-.09-.25-.09-.4ZM256.69,61.99v.21c0,.12.03.23.08.32.06.09.15.14.29.14s.23-.05.29-.14c.06-.1.08-.2.08-.32v-.21c0-.12-.03-.23-.08-.32-.05-.1-.15-.14-.29-.14s-.23.05-.29.14c-.06.09-.09.2-.09.32ZM256.45,65.2l2.72-3.95h.44l-2.72,3.95h-.44Z"/>
    <path class="cls-4" d="M251.32,81.01c-.16,0-.32-.03-.49-.09-.16-.06-.31-.16-.44-.3-.13-.14-.24-.33-.32-.57-.08-.24-.12-.55-.12-.91s.03-.66.1-.93c.07-.27.16-.5.29-.69.12-.19.27-.33.45-.42.18-.1.38-.14.6-.14s.42.04.59.13c.17.09.32.21.42.37.11.16.18.34.21.54h-.47c-.04-.18-.13-.32-.25-.44-.13-.12-.29-.18-.5-.18-.31,0-.55.13-.72.4-.17.27-.26.64-.26,1.12h.03c.07-.11.16-.2.26-.28.1-.08.21-.14.33-.18.12-.04.25-.06.38-.06.23,0,.43.06.62.17.19.11.34.27.45.47.11.2.17.42.17.68s-.05.47-.16.67c-.11.2-.26.36-.46.48-.2.12-.43.18-.69.17ZM251.32,80.59c.16,0,.31-.04.44-.12.13-.08.23-.19.31-.33.08-.14.11-.29.11-.46s-.04-.31-.11-.45c-.07-.14-.17-.24-.3-.32-.13-.08-.27-.12-.43-.12-.12,0-.24.02-.34.07-.11.05-.2.11-.28.2-.08.08-.14.18-.19.29-.05.11-.07.22-.07.34,0,.16.04.3.11.44.07.14.18.25.3.33.13.08.28.13.44.13ZM254.69,81.01c-.29,0-.54-.08-.74-.24-.2-.16-.36-.39-.47-.69-.11-.3-.16-.67-.16-1.1s.05-.79.16-1.09c.11-.3.27-.54.47-.69.21-.16.45-.24.74-.24s.53.08.74.24c.21.16.36.39.47.69.11.3.16.67.16,1.09s-.05.8-.16,1.1c-.11.3-.26.53-.47.69-.2.16-.45.24-.74.24ZM254.69,80.59c.29,0,.51-.14.67-.42.16-.28.24-.67.24-1.19,0-.34-.04-.63-.11-.87-.07-.24-.18-.42-.31-.55-.13-.13-.3-.19-.49-.19-.29,0-.51.14-.67.42-.16.28-.24.68-.24,1.19,0,.34.04.63.11.87.07.24.18.42.31.55.14.12.3.19.49.19ZM258.81,80.22v-.21c0-.14.03-.28.09-.4.06-.12.15-.22.26-.29.12-.07.26-.11.42-.11s.31.04.42.11c.11.07.2.17.26.29.06.12.09.25.09.4v.21c0,.14-.03.28-.09.4-.06.12-.14.22-.26.29-.11.07-.25.11-.42.11s-.31-.04-.42-.11c-.11-.07-.2-.17-.26-.29-.06-.12-.09-.25-.09-.4ZM259.2,80.01v.21c0,.12.03.23.08.32.06.09.15.14.29.14s.23-.05.29-.14c.06-.1.09-.2.09-.32v-.21c0-.12-.03-.23-.08-.32-.05-.1-.15-.14-.29-.14s-.23.05-.29.14c-.06.09-.09.2-.09.32ZM256.84,77.95v-.21c0-.14.03-.28.09-.4.06-.12.15-.22.26-.29.12-.07.26-.11.42-.11s.31.04.42.11c.11.07.2.17.26.29.06.12.09.25.09.4v.21c0,.14-.03.28-.09.4-.06.12-.14.22-.26.29-.11.07-.25.11-.42.11s-.31-.04-.42-.11c-.11-.07-.2-.17-.26-.29-.06-.12-.09-.25-.09-.4ZM257.24,77.75v.21c0,.12.03.23.08.32.06.09.15.14.29.14s.23-.05.29-.14c.06-.1.08-.2.08-.32v-.21c0-.12-.03-.23-.08-.32-.05-.1-.15-.14-.29-.14s-.23.05-.29.14c-.06.09-.09.2-.09.32ZM256.99,80.96l2.72-3.95h.44l-2.72,3.95h-.44Z"/>
    <path class="cls-9" d="M249.91,96.45v-.39l1.74-2.75h.29v.61h-.19l-1.31,2.08v.03h2.34v.42h-2.86ZM251.77,97.26v-3.95h.46v3.95h-.46ZM254.73,97.31c-.23,0-.43-.04-.61-.13-.18-.09-.33-.21-.44-.37-.11-.16-.17-.34-.18-.54h.46c.02.18.1.33.24.44.15.12.32.17.52.17.16,0,.31-.04.43-.11.13-.08.23-.18.3-.31.07-.13.11-.28.11-.45s-.04-.33-.11-.46c-.07-.14-.18-.24-.31-.32-.13-.08-.28-.12-.45-.12-.12,0-.25.02-.37.06-.13.04-.23.09-.31.14l-.45-.05.24-1.95h2.05v.42h-1.65l-.14,1.16h.02c.08-.06.18-.12.3-.16.12-.04.25-.06.38-.06.24,0,.46.06.65.17.19.11.34.27.45.47.11.2.16.43.16.68s-.06.48-.17.68c-.11.2-.27.35-.46.47-.2.11-.42.17-.67.17ZM258.81,96.52v-.21c0-.14.03-.28.09-.4.06-.12.15-.22.26-.29.12-.07.26-.11.42-.11s.31.04.42.11c.11.07.2.17.26.29.06.12.09.25.09.4v.21c0,.14-.03.28-.09.4-.06.12-.14.22-.26.29-.11.07-.25.11-.42.11s-.31-.04-.42-.11c-.11-.07-.2-.17-.26-.29-.06-.12-.09-.25-.09-.4ZM259.2,96.31v.21c0,.12.03.23.08.32.06.09.15.14.29.14s.23-.05.29-.14c.06-.1.09-.2.09-.32v-.21c0-.12-.03-.23-.08-.32-.05-.1-.15-.14-.29-.14s-.23.05-.29.14c-.06.09-.09.2-.09.32ZM256.84,94.25v-.21c0-.14.03-.28.09-.4.06-.12.15-.22.26-.29.12-.07.26-.11.42-.11s.31.04.42.11c.11.07.2.17.26.29.06.12.09.25.09.4v.21c0,.14-.03.28-.09.4-.06.12-.14.22-.26.29-.11.07-.25.11-.42.11s-.31-.04-.42-.11c-.11-.07-.2-.17-.26-.29-.06-.12-.09-.25-.09-.4ZM257.24,94.05v.21c0,.12.03.23.08.32.06.09.15.14.29.14s.23-.05.29-.14c.06-.1.08-.2.08-.32v-.21c0-.12-.03-.23-.08-.32-.05-.1-.15-.14-.29-.14s-.23.05-.29.14c-.06.09-.09.2-.09.32ZM256.99,97.26l2.72-3.95h.44l-2.72,3.95h-.44Z"/>
    <path class="cls-9" d="M251.28,113.61c-.25,0-.48-.04-.68-.13-.2-.09-.36-.21-.47-.36-.12-.16-.18-.34-.19-.55h.49c.01.13.05.24.13.33.08.09.18.16.3.21.12.05.26.07.42.07.17,0,.32-.03.45-.09.13-.06.23-.14.31-.25s.11-.23.11-.37c0-.15-.04-.27-.11-.38-.07-.11-.18-.2-.32-.26-.14-.06-.31-.09-.51-.09h-.32v-.42h.32c.16,0,.29-.03.41-.09.12-.06.21-.14.28-.24.07-.1.1-.22.1-.36s-.03-.25-.09-.35c-.06-.1-.14-.18-.25-.23-.11-.06-.23-.08-.38-.08-.14,0-.26.02-.39.07-.12.05-.22.12-.29.21-.08.09-.12.2-.12.34h-.46c0-.21.07-.39.19-.54.12-.16.27-.28.46-.37.19-.09.4-.13.63-.13.24,0,.45.05.63.15.17.1.31.23.4.39.09.16.14.33.14.52,0,.22-.06.41-.18.57-.12.16-.27.27-.47.33v.03c.25.04.44.15.58.32.14.17.21.38.21.63,0,.21-.06.41-.18.58-.12.17-.27.3-.47.4-.2.1-.43.15-.69.15ZM254.69,113.61c-.29,0-.54-.08-.74-.24-.2-.16-.36-.39-.47-.69-.11-.3-.16-.67-.16-1.1s.05-.79.16-1.09c.11-.3.27-.54.47-.69.21-.16.45-.24.74-.24s.53.08.74.24c.21.16.36.39.47.69.11.3.16.67.16,1.09s-.05.8-.16,1.1c-.11.3-.26.53-.47.69-.2.16-.45.24-.74.24ZM254.69,113.19c.29,0,.51-.14.67-.42.16-.28.24-.67.24-1.19,0-.34-.04-.63-.11-.87-.07-.24-.18-.42-.31-.55-.13-.13-.3-.19-.49-.19-.29,0-.51.14-.67.42-.16.28-.24.68-.24,1.19,0,.34.04.63.11.87.07.24.18.42.31.55.14.12.3.19.49.19ZM258.81,112.82v-.21c0-.14.03-.28.09-.4.06-.12.15-.22.26-.29.12-.07.26-.11.42-.11s.31.04.42.11c.11.07.2.17.26.29.06.12.09.25.09.4v.21c0,.14-.03.28-.09.4-.06.12-.14.22-.26.29-.11.07-.25.11-.42.11s-.31-.04-.42-.11c-.11-.07-.2-.17-.26-.29-.06-.12-.09-.25-.09-.4ZM259.2,112.61v.21c0,.12.03.23.08.32.06.09.15.14.29.14s.23-.05.29-.14c.06-.1.09-.2.09-.32v-.21c0-.12-.03-.23-.08-.32-.05-.1-.15-.14-.29-.14s-.23.05-.29.14c-.06.09-.09.2-.09.32ZM256.84,110.55v-.21c0-.14.03-.28.09-.4.06-.12.15-.22.26-.29.12-.07.26-.11.42-.11s.31.04.42.11c.11.07.2.17.26.29.06.12.09.25.09.4v.21c0,.14-.03.28-.09.4-.06.12-.14.22-.26.29-.11.07-.25.11-.42.11s-.31-.04-.42-.11c-.11-.07-.2-.17-.26-.29-.06-.12-.09-.25-.09-.4ZM257.24,110.35v.21c0,.12.03.23.08.32.06.09.15.14.29.14s.23-.05.29-.14c.06-.1.08-.2.08-.32v-.21c0-.12-.03-.23-.08-.32-.05-.1-.15-.14-.29-.14s-.23.05-.29.14c-.06.09-.09.2-.09.32ZM256.99,113.56l2.72-3.95h.44l-2.72,3.95h-.44Z"/>
    <path class="cls-9" d="M251.81,125.91v3.95h-.48v-3.45h-.02l-.96.64v-.49l.99-.66h.48ZM254.18,129.91c-.23,0-.43-.04-.61-.13-.18-.09-.33-.21-.44-.37-.11-.16-.17-.34-.18-.54h.46c.02.18.1.33.24.44.15.12.32.17.52.17.16,0,.31-.04.43-.11.13-.08.23-.18.3-.31.07-.13.11-.28.11-.45s-.04-.33-.11-.46c-.07-.14-.18-.24-.31-.32-.13-.08-.28-.12-.45-.12-.12,0-.25.02-.37.06-.13.04-.23.09-.31.14l-.45-.05.24-1.95h2.05v.42h-1.65l-.14,1.16h.02c.08-.06.18-.12.3-.16.12-.04.25-.06.38-.06.24,0,.46.06.65.17.19.11.34.27.45.47.11.2.16.43.16.68s-.06.48-.17.68c-.11.2-.27.35-.46.47-.2.11-.42.17-.67.17ZM258.27,129.12v-.21c0-.14.03-.28.09-.4.06-.12.15-.22.26-.29.12-.07.26-.11.42-.11s.31.04.42.11c.11.07.2.17.26.29.06.12.09.25.09.4v.21c0,.14-.03.28-.09.4-.06.12-.14.22-.26.29-.11.07-.25.11-.42.11s-.31-.04-.42-.11c-.11-.07-.2-.17-.26-.29-.06-.12-.09-.25-.09-.4ZM258.66,128.91v.21c0,.12.03.23.08.32.06.09.15.14.29.14s.23-.05.29-.14c.06-.1.09-.2.09-.32v-.21c0-.12-.03-.23-.08-.32-.05-.1-.15-.14-.29-.14s-.23.05-.29.14c-.06.09-.09.2-.09.32ZM256.3,126.85v-.21c0-.14.03-.28.09-.4.06-.12.15-.22.26-.29.12-.07.26-.11.42-.11s.31.04.42.11c.11.07.2.17.26.29.06.12.09.25.09.4v.21c0,.14-.03.28-.09.4-.06.12-.14.22-.26.29-.11.07-.25.11-.42.11s-.31-.04-.42-.11c-.11-.07-.2-.17-.26-.29-.06-.12-.09-.25-.09-.4ZM256.69,126.65v.21c0,.12.03.23.08.32.06.09.15.14.29.14s.23-.05.29-.14c.06-.1.08-.2.08-.32v-.21c0-.12-.03-.23-.08-.32-.05-.1-.15-.14-.29-.14s-.23.05-.29.14c-.06.09-.09.2-.09.32ZM256.45,129.86l2.72-3.95h.44l-2.72,3.95h-.44Z"/>
    <path class="cls-9" d="M253.1,146.21c-.23,0-.43-.04-.61-.13-.18-.09-.33-.21-.44-.37-.11-.16-.17-.34-.18-.54h.46c.02.18.1.33.24.44.15.12.32.17.52.17.16,0,.31-.04.43-.11.13-.08.23-.18.3-.31.07-.13.11-.28.11-.45s-.04-.33-.11-.46c-.07-.14-.18-.24-.31-.32-.13-.08-.28-.12-.45-.12-.12,0-.25.02-.37.06-.13.04-.23.09-.31.14l-.45-.05.24-1.95h2.05v.42h-1.65l-.14,1.16h.02c.08-.06.18-.12.3-.16s.25-.06.38-.06c.24,0,.46.06.65.17.19.11.34.27.45.47.11.2.16.43.16.68s-.06.48-.17.68c-.11.2-.27.35-.46.47-.2.11-.42.17-.67.17ZM257.18,145.42v-.21c0-.14.03-.28.09-.4.06-.12.15-.22.26-.29.12-.07.26-.11.42-.11s.31.04.42.11c.11.07.2.17.26.29.06.12.09.25.09.4v.21c0,.14-.03.28-.09.4-.06.12-.14.22-.26.29-.11.07-.25.11-.42.11s-.31-.04-.42-.11c-.11-.07-.2-.17-.26-.29-.06-.12-.09-.25-.09-.4ZM257.57,145.21v.21c0,.12.03.23.08.32.06.09.15.14.29.14s.23-.05.29-.14c.06-.1.09-.2.09-.32v-.21c0-.12-.03-.23-.08-.32-.05-.1-.15-.14-.29-.14s-.23.05-.29.14c-.06.09-.09.2-.09.32ZM255.21,143.16v-.21c0-.14.03-.28.09-.4.06-.12.15-.22.26-.29.12-.07.26-.11.42-.11s.31.04.42.11c.11.07.2.17.26.29.06.12.09.25.09.4v.21c0,.14-.03.28-.09.4-.06.12-.14.22-.26.29-.11.07-.25.11-.42.11s-.31-.04-.42-.11c-.11-.07-.2-.17-.26-.29-.06-.12-.09-.25-.09-.4ZM255.61,142.95v.21c0,.12.03.23.08.32.06.09.15.14.29.14s.23-.05.29-.14c.06-.1.08-.2.08-.32v-.21c0-.12-.03-.23-.08-.32-.05-.1-.15-.14-.29-.14s-.23.05-.29.14c-.06.09-.09.2-.09.32ZM255.36,146.16l2.72-3.95h.44l-2.72,3.95h-.44Z"/>
    <path class="cls-4" d="M196.95,48.36l.65-3.95h.39l-.65,3.95h-.39ZM195.15,47.26l.06-.39h2.95l-.06.39h-2.95ZM195.56,48.36l.65-3.95h.39l-.65,3.95h-.39ZM195.38,45.89l.06-.39h2.95l-.06.39h-2.95ZM198.89,48.36v-.35l1.3-1.43c.15-.17.28-.31.38-.44.1-.12.17-.24.22-.35.05-.11.07-.23.07-.35,0-.14-.03-.26-.1-.36-.07-.1-.16-.18-.27-.24s-.24-.08-.39-.08c-.15,0-.28.03-.4.09-.11.06-.2.15-.26.26-.06.11-.09.24-.09.39h-.46c0-.23.05-.43.16-.61.11-.17.25-.31.44-.41.19-.1.39-.15.62-.15s.44.05.62.15c.18.1.32.23.42.4.1.17.15.35.15.55,0,.15-.03.29-.08.43-.05.14-.14.29-.27.46-.13.17-.3.37-.53.62l-.89.95v.03h1.84v.42h-2.49ZM202.25,48.36v-3.95h2.37v.42h-1.89v1.34h1.71v.42h-1.71v1.77h-.48ZM206.71,48.41c-.25,0-.48-.04-.68-.13-.2-.09-.36-.21-.47-.36-.12-.16-.18-.34-.19-.55h.49c.01.13.05.24.13.33.08.09.18.16.3.21.12.05.26.08.41.08.17,0,.32-.03.45-.09.13-.06.23-.14.31-.25.07-.11.11-.23.11-.37s-.04-.27-.11-.38c-.07-.11-.18-.2-.32-.26-.14-.06-.31-.09-.51-.09h-.32v-.42h.32c.16,0,.29-.03.41-.08.12-.06.21-.14.28-.24.07-.1.1-.22.1-.36s-.03-.25-.09-.35c-.06-.1-.14-.18-.25-.23-.11-.06-.23-.08-.38-.08-.14,0-.27.03-.39.08-.12.05-.22.12-.29.21-.08.09-.12.2-.12.34h-.46c0-.21.07-.39.19-.54.12-.16.27-.28.46-.37.19-.09.4-.13.63-.13.24,0,.45.05.63.15.17.1.31.23.4.39.09.16.14.33.14.52,0,.22-.06.41-.18.57-.12.16-.27.27-.47.33v.03c.25.04.44.15.58.32.14.17.21.38.21.63,0,.21-.06.41-.18.58-.12.17-.27.3-.47.4-.2.1-.43.15-.68.15ZM210.14,48.41c-.16,0-.32-.03-.49-.09-.16-.06-.31-.16-.44-.3-.13-.14-.24-.33-.32-.57-.08-.24-.12-.55-.12-.91s.03-.66.1-.93c.07-.27.16-.5.29-.68.12-.19.28-.33.45-.42.18-.1.38-.14.6-.14s.42.04.59.13c.17.09.32.21.42.37.11.16.18.34.21.54h-.47c-.04-.18-.13-.32-.25-.44-.13-.12-.29-.18-.5-.18-.31,0-.55.13-.72.4-.17.27-.26.64-.26,1.12h.03c.07-.11.16-.2.26-.28.1-.08.21-.14.33-.18.12-.04.25-.06.38-.06.23,0,.43.06.62.17.19.11.34.27.45.46.11.2.17.42.17.68s-.05.47-.16.67c-.11.2-.26.36-.46.48-.2.12-.43.18-.69.17ZM210.14,47.99c.16,0,.31-.04.44-.12.13-.08.23-.19.31-.33.08-.14.11-.29.11-.46s-.04-.31-.11-.45c-.07-.14-.17-.24-.3-.32-.13-.08-.27-.12-.43-.12-.12,0-.24.02-.34.07-.11.05-.2.11-.28.2-.08.08-.14.18-.19.29-.05.11-.07.22-.07.34,0,.16.04.3.11.44.07.14.18.25.3.33.13.08.28.13.44.13ZM213.56,48.41c-.25,0-.48-.04-.68-.13-.2-.09-.36-.21-.47-.36-.12-.16-.18-.34-.19-.55h.49c.01.13.05.24.13.33.08.09.18.16.3.21.12.05.26.08.42.08.17,0,.32-.03.45-.09.13-.06.23-.14.31-.25s.11-.23.11-.37-.04-.27-.11-.38c-.07-.11-.18-.2-.32-.26-.14-.06-.31-.09-.51-.09h-.32v-.42h.32c.16,0,.29-.03.41-.08.12-.06.21-.14.28-.24.07-.1.1-.22.1-.36s-.03-.25-.09-.35c-.06-.1-.14-.18-.25-.23-.11-.06-.23-.08-.38-.08-.14,0-.26.03-.39.08-.12.05-.22.12-.29.21-.08.09-.12.2-.12.34h-.46c0-.21.07-.39.19-.54.12-.16.27-.28.46-.37.19-.09.4-.13.63-.13.24,0,.45.05.63.15.17.1.31.23.4.39.09.16.14.33.14.52,0,.22-.06.41-.18.57-.12.16-.27.27-.47.33v.03c.25.04.44.15.58.32.14.17.21.38.21.63,0,.21-.06.41-.18.58-.12.17-.27.3-.47.4-.2.1-.43.15-.69.15ZM215.75,48.36v-3.95h2.38v.42h-1.91v1.34h1.78v.42h-1.78v1.34h1.94v.42h-2.42Z"/>
    <path class="cls-4" d="M196.95,65.2l.65-3.95h.39l-.65,3.95h-.39ZM195.15,64.1l.06-.39h2.95l-.06.39h-2.95ZM195.56,65.2l.65-3.95h.39l-.65,3.95h-.39ZM195.38,62.73l.06-.39h2.95l-.06.39h-2.95ZM200.13,65.25c-.23,0-.43-.04-.61-.13-.18-.09-.33-.21-.44-.37-.11-.16-.17-.34-.18-.54h.46c.02.18.1.33.24.44.15.12.32.17.52.17.16,0,.31-.04.43-.11.13-.08.23-.18.3-.31.07-.13.11-.28.11-.45s-.04-.33-.11-.46c-.07-.14-.18-.24-.31-.32-.13-.08-.28-.12-.45-.12-.12,0-.25.02-.37.06-.13.04-.23.09-.31.14l-.45-.05.24-1.95h2.05v.42h-1.65l-.14,1.16h.02c.08-.06.18-.12.3-.16.12-.04.25-.06.38-.06.24,0,.46.06.65.17.19.11.34.27.45.47.11.2.16.43.16.68s-.06.48-.17.68c-.11.2-.27.35-.46.47-.2.11-.42.17-.67.17ZM202.2,65.2v-.35l1.3-1.43c.15-.17.28-.31.38-.44.1-.12.17-.24.22-.35.05-.11.07-.23.07-.35,0-.14-.03-.26-.1-.36-.07-.1-.16-.18-.27-.24-.11-.06-.24-.08-.39-.08-.15,0-.28.03-.4.09-.11.06-.2.15-.26.26-.06.11-.09.24-.09.39h-.46c0-.23.05-.43.16-.61.11-.17.25-.31.44-.41.19-.1.39-.15.62-.15s.44.05.62.15.32.23.42.4c.1.17.15.35.15.55,0,.15-.03.29-.08.43-.05.14-.14.29-.27.46-.13.17-.3.37-.53.62l-.89.95v.03h1.84v.42h-2.49ZM206.72,65.25c-.23,0-.43-.04-.61-.13-.18-.09-.33-.21-.44-.37-.11-.16-.17-.34-.18-.54h.46c.02.18.1.33.24.44.15.12.32.17.52.17.16,0,.31-.04.43-.11.13-.08.23-.18.3-.31.07-.13.11-.28.11-.45s-.04-.33-.11-.46c-.07-.14-.18-.24-.31-.32-.13-.08-.28-.12-.45-.12-.12,0-.25.02-.37.06-.13.04-.23.09-.31.14l-.45-.05.24-1.95h2.05v.42h-1.65l-.14,1.16h.02c.08-.06.18-.12.3-.16.12-.04.25-.06.38-.06.24,0,.46.06.65.17.19.11.34.27.45.47.11.2.16.43.16.68s-.06.48-.17.68c-.11.2-.27.35-.46.47-.2.11-.42.17-.67.17ZM210.06,65.25c-.27,0-.5-.05-.7-.14-.2-.1-.36-.23-.47-.39-.11-.17-.17-.36-.17-.57,0-.17.03-.32.1-.46.07-.14.16-.26.27-.36.12-.1.25-.16.39-.18v-.02c-.19-.05-.34-.15-.45-.32-.11-.16-.17-.35-.17-.56,0-.2.05-.38.15-.54.1-.16.24-.28.42-.37.18-.09.39-.14.62-.14s.43.05.61.14c.18.09.32.22.42.37.1.16.16.34.16.54,0,.21-.06.4-.17.56-.11.16-.26.27-.45.32v.02c.14.03.27.09.39.18.11.1.21.21.27.36.07.14.1.3.1.46,0,.21-.06.4-.17.57-.11.17-.27.3-.47.39-.2.09-.43.14-.7.14ZM210.06,64.83c.18,0,.33-.03.46-.09.13-.06.23-.14.3-.25.07-.11.11-.23.11-.37,0-.15-.04-.28-.12-.4-.08-.11-.18-.2-.31-.27-.13-.07-.28-.1-.45-.1s-.32.03-.45.1c-.13.07-.23.16-.31.27-.07.11-.11.25-.11.4,0,.14.03.26.1.37.07.11.17.19.3.25.13.06.29.09.47.09ZM210.06,62.95c.14,0,.27-.03.38-.08.11-.06.2-.14.26-.24.06-.1.1-.22.1-.36,0-.13-.03-.25-.09-.35-.06-.1-.15-.18-.26-.23-.11-.06-.24-.08-.38-.08s-.28.03-.39.08c-.11.05-.2.13-.26.23-.06.1-.09.22-.09.35,0,.14.03.26.09.36.06.1.15.18.26.24.11.06.24.08.38.08ZM213.38,65.25c-.23,0-.43-.04-.61-.13-.18-.09-.33-.21-.44-.37-.11-.16-.17-.34-.18-.54h.46c.02.18.1.33.24.44.15.12.32.17.52.17.16,0,.31-.04.43-.11.13-.08.23-.18.3-.31.07-.13.11-.28.11-.45s-.04-.33-.11-.46c-.07-.14-.18-.24-.31-.32-.13-.08-.28-.12-.45-.12-.12,0-.25.02-.37.06-.13.04-.23.09-.31.14l-.45-.05.24-1.95h2.05v.42h-1.65l-.14,1.16h.02c.08-.06.18-.12.3-.16.12-.04.25-.06.38-.06.24,0,.46.06.65.17.19.11.34.27.45.47.11.2.16.43.16.68s-.06.48-.17.68c-.11.2-.27.35-.46.47-.2.11-.42.17-.67.17ZM215.52,65.2v-3.95h2.38v.42h-1.91v1.33h1.78v.42h-1.78v1.34h1.94v.42h-2.42Z"/>
    <path class="cls-4" d="M196.95,80.96l.65-3.95h.39l-.65,3.95h-.39ZM195.15,79.86l.06-.39h2.95l-.06.39h-2.95ZM195.56,80.96l.65-3.95h.39l-.65,3.95h-.39ZM195.38,78.49l.06-.39h2.95l-.06.39h-2.95ZM199.02,80.96l1.77-3.5v-.03h-2.04v-.42h2.53v.45l-1.76,3.5h-.5ZM201.59,80.15v-.39l1.74-2.75h.29v.61h-.19l-1.31,2.08v.03h2.34v.42h-2.86ZM203.45,80.96v-3.95h.46v3.95h-.46ZM205.29,80.96l1.77-3.5v-.03h-2.04v-.42h2.53v.45l-1.76,3.5h-.5ZM209.48,76.95c.16,0,.32.03.49.09.16.06.31.16.44.3.13.14.24.33.32.57.08.24.12.54.12.9s-.03.66-.1.94c-.07.27-.16.5-.29.69-.12.19-.27.33-.45.42-.18.1-.38.14-.6.14s-.42-.04-.59-.13c-.17-.09-.31-.21-.42-.37-.11-.16-.18-.34-.21-.55h.47c.04.18.13.33.25.45.13.12.3.18.5.18.3,0,.55-.13.72-.4.18-.27.27-.64.27-1.13h-.03c-.07.11-.16.2-.26.28-.1.08-.21.14-.33.18-.12.04-.25.06-.39.06-.23,0-.43-.06-.62-.17-.19-.11-.34-.27-.45-.47-.11-.2-.17-.42-.17-.68s.05-.46.16-.66c.11-.2.26-.36.46-.48.2-.12.43-.18.7-.17ZM209.48,77.38c-.16,0-.31.04-.44.12-.13.08-.23.19-.31.32-.07.14-.11.29-.11.45s.04.31.11.45c.07.13.17.24.3.32.13.08.27.12.43.12.12,0,.24-.02.34-.07.11-.05.2-.12.28-.2.08-.08.14-.18.19-.29.05-.11.07-.22.07-.34,0-.15-.04-.3-.11-.43-.07-.14-.17-.24-.3-.33-.13-.08-.28-.13-.44-.13ZM211.63,80.96l1.77-3.5v-.03h-2.04v-.42h2.53v.45l-1.76,3.5h-.5ZM214.68,80.96v-3.95h2.38v.42h-1.91v1.33h1.78v.42h-1.78v1.34h1.94v.42h-2.42Z"/>
    <path class="cls-9" d="M196.95,97.26l.65-3.95h.39l-.65,3.95h-.39ZM195.15,96.16l.06-.39h2.95l-.06.39h-2.95ZM195.56,97.26l.65-3.95h.39l-.65,3.95h-.39ZM195.38,94.79l.06-.39h2.95l-.06.39h-2.95ZM200.15,93.25c.16,0,.32.03.49.09.16.06.31.16.44.3.13.14.24.33.32.57.08.24.12.54.12.9s-.03.66-.1.94c-.07.27-.16.5-.29.69-.12.19-.27.33-.45.42-.18.1-.38.14-.6.14s-.42-.04-.59-.13c-.17-.09-.31-.21-.42-.37-.11-.16-.18-.34-.21-.55h.47c.04.18.13.33.25.45.13.12.3.18.5.18.3,0,.55-.13.72-.4.18-.27.27-.64.27-1.13h-.03c-.07.11-.16.2-.26.28-.1.08-.21.14-.33.18-.12.04-.25.06-.39.06-.23,0-.43-.06-.62-.17-.19-.11-.34-.27-.45-.47-.11-.2-.17-.42-.17-.68s.05-.46.16-.66c.11-.2.26-.36.46-.48.2-.12.43-.18.7-.17ZM200.15,93.68c-.16,0-.31.04-.44.12-.13.08-.23.19-.31.32-.07.14-.11.29-.11.45s.04.31.11.45c.07.13.17.24.3.32.13.08.27.12.43.12.12,0,.24-.02.34-.07.11-.05.2-.12.28-.2.08-.08.14-.18.19-.29.05-.11.07-.22.07-.34,0-.15-.04-.3-.11-.43-.07-.14-.17-.24-.31-.33-.13-.08-.27-.13-.44-.13ZM202.3,97.26l1.77-3.5v-.03h-2.04v-.42h2.53v.45l-1.76,3.5h-.5ZM206.49,93.25c.16,0,.32.03.49.09.16.06.31.16.44.3.13.14.24.33.32.57.08.24.12.54.12.9s-.03.66-.1.94c-.07.27-.16.5-.29.69-.12.19-.27.33-.45.42-.18.1-.38.14-.6.14s-.42-.04-.59-.13c-.17-.09-.31-.21-.42-.37-.11-.16-.18-.34-.21-.55h.47c.04.18.13.33.25.45.13.12.3.18.5.18.3,0,.55-.13.72-.4.18-.27.27-.64.27-1.13h-.03c-.07.11-.16.2-.26.28-.1.08-.21.14-.33.18-.12.04-.25.06-.39.06-.23,0-.43-.06-.62-.17-.19-.11-.34-.27-.45-.47-.11-.2-.17-.42-.17-.68s.05-.46.16-.66c.11-.2.26-.36.46-.48.2-.12.43-.18.7-.17ZM206.49,93.68c-.16,0-.31.04-.44.12-.13.08-.23.19-.31.32-.07.14-.11.29-.11.45s.04.31.11.45c.07.13.17.24.3.32.13.08.27.12.43.12.12,0,.24-.02.34-.07.11-.05.2-.12.28-.2.08-.08.14-.18.19-.29.05-.11.07-.22.07-.34,0-.15-.04-.3-.11-.43-.07-.14-.17-.24-.3-.33-.13-.08-.28-.13-.44-.13ZM208.69,97.26v-3.95h1.38c.28,0,.5.05.68.14.18.09.31.22.4.38.09.16.13.33.13.53,0,.17-.03.31-.09.42-.06.11-.14.2-.24.26-.1.06-.2.11-.31.14v.04c.12,0,.24.05.37.13.12.08.22.19.31.33.08.14.12.32.12.53s-.04.38-.13.53c-.09.16-.23.28-.43.38-.19.09-.45.14-.76.14h-1.43ZM209.17,96.83h.95c.31,0,.53-.06.67-.18.13-.12.2-.27.2-.44,0-.13-.03-.26-.1-.37-.07-.11-.17-.21-.29-.27-.13-.07-.28-.1-.45-.1h-.97v1.37ZM209.17,95.04h.89c.14,0,.27-.03.39-.08.12-.06.21-.14.28-.24.07-.1.1-.22.1-.36,0-.17-.06-.32-.18-.44-.12-.12-.31-.18-.58-.18h-.9v1.31ZM213.41,93.25c.16,0,.32.03.49.09.16.06.31.16.44.3.13.14.24.33.32.57.08.24.12.54.12.9s-.03.66-.1.94c-.07.27-.16.5-.29.69-.12.19-.27.33-.45.42-.18.1-.38.14-.6.14s-.42-.04-.59-.13c-.17-.09-.31-.21-.42-.37-.11-.16-.18-.34-.21-.55h.47c.04.18.13.33.25.45.13.12.3.18.5.18.31,0,.55-.13.72-.4.18-.27.27-.64.27-1.13h-.03c-.07.11-.16.2-.26.28-.1.08-.21.14-.33.18-.12.04-.25.06-.39.06-.23,0-.43-.06-.62-.17-.19-.11-.34-.27-.45-.47-.11-.2-.17-.42-.17-.68s.05-.46.16-.66c.11-.2.26-.36.46-.48.2-.12.43-.18.7-.17ZM213.41,93.68c-.16,0-.31.04-.44.12-.13.08-.23.19-.31.32-.07.14-.11.29-.11.45s.04.31.11.45c.07.13.17.24.3.32.13.08.27.12.43.12.12,0,.24-.02.34-.07.11-.05.2-.12.28-.2.08-.08.14-.18.19-.29.05-.11.07-.22.07-.34,0-.15-.04-.3-.11-.43-.07-.14-.17-.24-.3-.33-.13-.08-.28-.13-.44-.13ZM215.61,97.26v-3.95h2.38v.42h-1.91v1.33h1.78v.42h-1.78v1.34h1.94v.42h-2.42Z"/>
    <path class="cls-9" d="M196.95,113.56l.65-3.95h.39l-.65,3.95h-.39ZM195.15,112.46l.06-.39h2.95l-.06.39h-2.95ZM195.56,113.56l.65-3.95h.39l-.65,3.95h-.39ZM195.38,111.09l.06-.39h2.95l-.06.39h-2.95ZM198.96,113.56v-3.95h1.38c.28,0,.5.05.68.14.18.09.31.22.4.38.09.16.13.33.13.53,0,.17-.03.31-.09.42-.06.11-.14.2-.24.26-.1.06-.2.11-.31.14v.04c.12,0,.24.05.36.13.12.08.22.19.31.33.08.14.12.32.12.53s-.05.38-.13.53c-.09.16-.23.28-.43.38-.19.09-.45.14-.76.14h-1.43ZM199.44,113.13h.95c.31,0,.53-.06.67-.18.13-.12.2-.27.2-.44,0-.13-.03-.26-.1-.37-.07-.11-.17-.21-.29-.27-.13-.07-.28-.1-.45-.1h-.97v1.37ZM199.44,111.34h.89c.14,0,.27-.03.39-.08.12-.06.21-.14.28-.24.07-.1.1-.22.1-.36,0-.17-.06-.32-.18-.44-.12-.12-.31-.18-.57-.18h-.9v1.31ZM202.66,113.56h-.5l1.45-3.95h.49l1.45,3.95h-.5l-1.18-3.33h-.03l-1.18,3.33ZM202.84,112.01h2.02v.42h-2.02v-.42ZM206.17,113.56v-3.95h1.38c.27,0,.5.05.68.14.18.09.31.22.4.38.09.16.13.33.13.53,0,.17-.03.31-.09.42-.06.11-.14.2-.24.26-.1.06-.2.11-.31.14v.04c.12,0,.24.05.36.13.12.08.22.19.31.33.08.14.12.32.12.53s-.05.38-.14.53c-.09.16-.23.28-.43.38-.19.09-.45.14-.76.14h-1.43ZM206.65,113.13h.95c.31,0,.53-.06.67-.18.13-.12.2-.27.2-.44,0-.13-.03-.26-.1-.37-.07-.11-.17-.21-.29-.27-.13-.07-.27-.1-.45-.1h-.97v1.37ZM206.65,111.34h.89c.14,0,.27-.03.39-.08.12-.06.21-.14.28-.24.07-.1.1-.22.1-.36,0-.17-.06-.32-.18-.44-.12-.12-.31-.18-.57-.18h-.9v1.31ZM212.88,110.84h-.48c-.03-.14-.08-.26-.15-.36-.07-.1-.15-.19-.25-.26-.1-.07-.21-.13-.33-.16-.12-.04-.25-.05-.38-.05-.24,0-.46.06-.65.18-.19.12-.35.3-.46.53-.11.24-.17.52-.17.87s.06.63.17.87c.11.24.27.41.46.53.19.12.41.18.65.18.13,0,.26-.02.38-.05.12-.04.23-.09.33-.16.1-.07.19-.16.25-.26.07-.11.12-.23.15-.36h.48c-.04.2-.1.38-.2.54-.1.16-.21.3-.35.41-.14.11-.3.2-.48.25-.17.06-.36.09-.56.09-.34,0-.64-.08-.9-.25-.26-.16-.47-.4-.62-.7-.15-.3-.23-.66-.23-1.08s.07-.78.23-1.08.36-.54.62-.7.56-.25.9-.25c.2,0,.39.03.56.09.18.06.34.14.48.25.14.11.26.25.35.41.1.16.16.34.2.54ZM213.66,113.56v-3.95h1.38c.28,0,.5.05.68.14.18.09.31.22.4.38.09.16.13.33.13.53,0,.17-.03.31-.09.42-.06.11-.14.2-.24.26-.1.06-.2.11-.31.14v.04c.12,0,.24.05.36.13.12.08.22.19.31.33.08.14.12.32.12.53s-.05.38-.13.53c-.09.16-.23.28-.43.38-.19.09-.45.14-.76.14h-1.43ZM214.13,113.13h.95c.31,0,.53-.06.67-.18.13-.12.2-.27.2-.44,0-.13-.03-.26-.1-.37-.07-.11-.17-.21-.29-.27-.13-.07-.28-.1-.45-.1h-.97v1.37ZM214.13,111.34h.89c.14,0,.27-.03.39-.08.12-.06.21-.14.28-.24.07-.1.1-.22.1-.36,0-.17-.06-.32-.18-.44-.12-.12-.31-.18-.57-.18h-.9v1.31ZM217.19,113.56v-3.95h2.38v.42h-1.91v1.33h1.78v.42h-1.78v1.34h1.94v.42h-2.42Z"/>
    <path class="cls-9" d="M197.49,129.86l.65-3.95h.39l-.65,3.95h-.39ZM195.69,128.76l.06-.39h2.95l-.06.39h-2.95ZM196.1,129.86l.65-3.95h.39l-.65,3.95h-.39ZM195.93,127.39l.06-.39h2.95l-.06.39h-2.95ZM200.73,129.86h-1.22v-3.95h1.27c.38,0,.71.08.98.24.27.16.48.38.63.68.15.29.22.64.22,1.05s-.07.77-.22,1.06c-.15.3-.36.52-.64.68-.28.16-.62.24-1.02.24ZM199.99,129.43h.71c.33,0,.6-.06.81-.19.21-.13.37-.31.48-.54.11-.23.16-.51.16-.83s-.05-.59-.16-.82c-.1-.23-.26-.41-.47-.53-.21-.12-.47-.19-.77-.19h-.76v3.1ZM206.59,127.14h-.48c-.03-.14-.08-.26-.15-.36-.07-.1-.15-.19-.25-.26-.1-.07-.21-.13-.33-.16-.12-.04-.25-.05-.38-.05-.24,0-.46.06-.65.18-.19.12-.35.3-.46.53-.11.24-.17.52-.17.87s.06.63.17.87c.11.24.27.41.46.53.19.12.41.18.65.18.13,0,.26-.02.38-.05.12-.04.23-.09.33-.16.1-.07.19-.16.25-.26.07-.11.12-.23.15-.36h.48c-.04.2-.1.38-.2.54-.1.16-.21.3-.36.41-.14.11-.3.2-.48.25-.17.06-.36.09-.56.09-.34,0-.64-.08-.9-.25-.26-.16-.47-.4-.62-.7-.15-.3-.23-.66-.23-1.08s.07-.78.23-1.08.36-.54.62-.7.56-.25.9-.25c.2,0,.39.03.56.09.18.06.34.14.48.25.14.11.26.25.36.41.1.16.16.34.2.54ZM208.58,129.86h-1.22v-3.95h1.27c.38,0,.71.08.98.24.27.16.48.38.63.68.15.29.22.64.22,1.05s-.07.77-.22,1.06c-.15.3-.36.52-.64.68-.28.16-.62.24-1.02.24ZM207.84,129.43h.71c.33,0,.6-.06.81-.19.21-.13.37-.31.48-.54.11-.23.16-.51.16-.83s-.05-.59-.16-.82c-.1-.23-.26-.41-.47-.53-.21-.12-.47-.19-.77-.19h-.76v3.1ZM211.27,129.86v-3.95h2.38v.42h-1.91v1.33h1.78v.42h-1.78v1.34h1.94v.42h-2.42ZM215.74,129.86h-1.22v-3.95h1.27c.38,0,.71.08.98.24.27.16.48.38.63.68.15.29.22.64.22,1.05s-.07.77-.22,1.06c-.15.3-.36.52-.64.68-.28.16-.62.24-1.02.24ZM215,129.43h.71c.33,0,.6-.06.81-.19.21-.13.37-.31.48-.54.11-.23.16-.51.16-.83s-.05-.59-.16-.82c-.1-.23-.26-.41-.47-.53-.21-.12-.47-.19-.77-.19h-.76v3.1ZM218.42,129.86v-3.95h2.37v.42h-1.89v1.33h1.71v.42h-1.71v1.77h-.48Z"/>
    <path class="cls-9" d="M198.58,146.16l.65-3.95h.39l-.65,3.95h-.39ZM196.78,145.06l.06-.39h2.95l-.06.39h-2.95ZM197.19,146.16l.65-3.95h.39l-.65,3.95h-.39ZM197.01,143.69l.06-.39h2.95l-.06.39h-2.95ZM200.59,146.16v-3.95h2.37v.42h-1.89v1.33h1.71v.42h-1.71v1.77h-.48ZM205.05,146.21c-.25,0-.48-.04-.68-.13-.2-.09-.36-.21-.47-.36-.12-.16-.18-.34-.19-.55h.49c.01.13.05.24.13.33.08.09.18.16.3.21.12.05.26.07.42.07.17,0,.32-.03.45-.09.13-.06.23-.14.31-.25.07-.11.11-.23.11-.37,0-.15-.04-.27-.11-.38-.07-.11-.18-.2-.32-.26-.14-.06-.31-.09-.51-.09h-.32v-.42h.32c.16,0,.29-.03.41-.09.12-.06.21-.14.28-.24.07-.1.1-.22.1-.36s-.03-.25-.09-.35c-.06-.1-.14-.18-.25-.23-.11-.06-.23-.08-.38-.08-.14,0-.27.03-.39.07-.12.05-.22.12-.29.21-.08.09-.12.2-.12.34h-.46c0-.21.07-.39.19-.54.12-.16.27-.28.46-.37.19-.09.4-.13.63-.13.24,0,.45.05.63.15.17.1.31.23.4.39.09.16.14.33.14.52,0,.22-.06.41-.18.57-.12.16-.27.27-.47.33v.03c.25.04.44.15.58.32.14.17.21.38.21.63,0,.21-.06.41-.18.58-.12.17-.27.3-.47.4-.2.1-.43.15-.69.15ZM207.24,146.16v-3.95h2.37v.42h-1.89v1.33h1.71v.42h-1.71v1.77h-.48ZM210.27,145.35v-.39l1.74-2.75h.29v.61h-.19l-1.31,2.08v.03h2.34v.42h-2.86ZM212.13,146.16v-3.95h.46v3.95h-.46ZM213.92,146.16v-3.95h2.37v.42h-1.89v1.33h1.71v.42h-1.71v1.77h-.48ZM216.94,145.35v-.39l1.74-2.75h.29v.61h-.19l-1.31,2.08v.03h2.34v.42h-2.86ZM218.8,146.16v-3.95h.46v3.95h-.46Z"/>
    <path class="cls-13" d="M147.22,66.35c-.29,0-.53-.06-.74-.19-.21-.13-.36-.3-.48-.53-.11-.23-.17-.5-.17-.8s.06-.57.17-.8c.11-.23.27-.41.47-.54.2-.13.43-.2.7-.2.15,0,.31.03.46.08.15.05.29.14.41.25.12.11.22.27.3.46s.11.42.11.7v.19h-2.28v-.39h1.82c0-.17-.03-.32-.1-.45-.07-.13-.16-.24-.28-.31-.12-.08-.26-.11-.43-.11-.18,0-.34.05-.47.14-.13.09-.23.2-.3.35s-.11.3-.11.46v.26c0,.22.04.41.12.57.08.15.19.27.33.35.14.08.3.12.48.12.12,0,.23-.02.32-.05.1-.03.18-.09.25-.15.07-.07.13-.16.16-.26l.44.12c-.05.15-.12.28-.23.39-.11.11-.24.2-.41.26-.16.06-.34.09-.54.09ZM151.47,63.32l-1.1,2.96h-.46l-1.1-2.96h.49l.82,2.36h.03l.82-2.36h.49ZM153.77,64.38v.42h-1.73v-.42h1.73ZM155.69,66.35c-.25,0-.47-.06-.65-.19-.19-.13-.34-.3-.44-.53-.11-.23-.16-.5-.16-.82s.05-.58.16-.81c.11-.23.26-.41.45-.53.19-.12.41-.19.66-.19.19,0,.35.03.46.1.11.06.2.14.26.22.06.08.11.15.14.2h.04v-1.46h.46v3.95h-.44v-.46h-.05c-.03.05-.08.12-.14.2-.06.08-.15.15-.26.22-.11.06-.27.09-.46.09ZM155.75,65.94c.18,0,.34-.05.46-.14.13-.1.22-.23.29-.4.07-.17.1-.37.1-.59s-.03-.42-.1-.58c-.06-.17-.16-.3-.29-.39-.13-.09-.28-.14-.47-.14s-.35.05-.48.15c-.13.1-.22.23-.29.4-.06.17-.09.35-.09.56s.03.4.1.57c.07.17.16.31.29.41.13.1.29.15.48.15ZM159.19,66.35c-.29,0-.53-.06-.74-.19-.21-.13-.36-.3-.48-.53-.11-.23-.17-.5-.17-.8s.06-.57.17-.8c.11-.23.27-.41.47-.54.2-.13.43-.2.7-.2.15,0,.31.03.46.08.15.05.29.14.41.25.12.11.22.27.3.46.07.19.11.42.11.7v.19h-2.28v-.39h1.82c0-.17-.03-.32-.1-.45-.07-.13-.16-.24-.28-.31-.12-.08-.26-.11-.43-.11-.18,0-.34.05-.47.14-.13.09-.23.2-.3.35-.07.14-.11.3-.11.46v.26c0,.22.04.41.12.57.08.15.19.27.33.35.14.08.3.12.48.12.12,0,.23-.02.32-.05.1-.03.18-.09.25-.15.07-.07.12-.16.16-.26l.44.12c-.05.15-.12.28-.23.39-.11.11-.24.2-.4.26-.16.06-.34.09-.54.09ZM162.35,66.35c-.29,0-.53-.06-.74-.19-.21-.13-.36-.3-.48-.53-.11-.23-.17-.5-.17-.8s.06-.57.17-.8c.11-.23.27-.41.47-.54.2-.13.43-.2.7-.2.15,0,.31.03.46.08.15.05.29.14.41.25.12.11.22.27.3.46.07.19.11.42.11.7v.19h-2.28v-.39h1.82c0-.17-.03-.32-.1-.45-.07-.13-.16-.24-.28-.31-.12-.08-.26-.11-.43-.11-.18,0-.34.05-.47.14-.13.09-.23.2-.3.35-.07.14-.11.3-.11.46v.26c0,.22.04.41.12.57.08.15.19.27.33.35.14.08.3.12.48.12.12,0,.23-.02.32-.05.1-.03.18-.09.25-.15.07-.07.13-.16.16-.26l.44.12c-.05.15-.12.28-.23.39-.11.11-.24.2-.41.26-.16.06-.34.09-.54.09ZM164.27,67.4v-4.08h.44v.47h.05c.03-.05.08-.12.14-.2.06-.08.15-.15.26-.22.11-.06.27-.1.46-.1.25,0,.47.06.66.19.19.12.34.3.45.53.11.23.16.5.16.81s-.05.59-.16.82c-.11.23-.25.41-.44.53-.19.12-.41.19-.65.19-.19,0-.34-.03-.46-.09-.11-.06-.2-.14-.26-.22-.06-.08-.11-.15-.14-.2h-.04v1.57h-.46ZM164.72,64.81c0,.22.03.42.1.59.07.17.16.3.29.4.13.1.28.14.46.14s.35-.05.48-.15c.13-.1.22-.24.29-.41.07-.17.1-.36.1-.57s-.03-.4-.1-.56c-.06-.17-.16-.3-.29-.4-.13-.1-.29-.15-.48-.15s-.34.05-.47.14c-.13.09-.22.22-.29.39-.06.17-.1.36-.1.58ZM169.28,64.38v.42h-1.73v-.42h1.73ZM171.38,66.34c-.16,0-.32-.03-.49-.09-.16-.06-.31-.16-.44-.3-.13-.14-.24-.33-.32-.57-.08-.24-.12-.55-.12-.91s.03-.66.1-.93c.07-.27.16-.5.29-.69.12-.19.27-.33.45-.42.18-.1.38-.14.6-.14s.42.04.59.13c.17.09.32.21.42.37.11.16.18.34.21.54h-.47c-.04-.18-.13-.32-.25-.44-.13-.12-.29-.18-.5-.18-.31,0-.55.13-.72.4-.17.27-.26.64-.26,1.12h.03c.07-.11.16-.2.26-.28.1-.08.21-.14.33-.18.12-.04.25-.06.38-.06.23,0,.43.06.62.17.19.11.34.27.45.47.11.2.17.42.17.68s-.05.47-.16.67c-.11.2-.26.36-.46.48-.2.12-.43.18-.69.17ZM171.38,65.92c.16,0,.31-.04.44-.12.13-.08.23-.19.31-.33.08-.14.11-.29.11-.46s-.04-.31-.11-.45c-.07-.14-.17-.24-.3-.32-.13-.08-.27-.12-.43-.12-.12,0-.24.02-.34.07-.11.05-.2.11-.28.2-.08.08-.14.18-.19.29-.05.11-.07.22-.07.34,0,.16.04.3.11.44.07.14.18.25.3.33.13.08.28.13.44.13ZM174.75,66.34c-.29,0-.54-.08-.74-.24-.2-.16-.36-.39-.47-.69-.11-.3-.16-.67-.16-1.1s.05-.79.16-1.09c.11-.3.27-.54.47-.69.21-.16.45-.24.74-.24s.53.08.74.24c.21.16.36.39.47.69.11.3.16.67.16,1.09s-.05.8-.16,1.1c-.11.3-.26.53-.47.69-.2.16-.45.24-.74.24ZM174.75,65.92c.29,0,.51-.14.67-.42.16-.28.24-.67.24-1.19,0-.34-.04-.63-.11-.87-.07-.24-.18-.42-.31-.55-.13-.13-.3-.19-.49-.19-.29,0-.51.14-.67.42-.16.28-.24.68-.24,1.19,0,.34.04.63.11.87.07.24.18.42.31.55.14.12.3.19.49.19ZM178.15,66.34c-.29,0-.54-.08-.74-.24-.2-.16-.36-.39-.47-.69-.11-.3-.16-.67-.16-1.1s.05-.79.16-1.09c.11-.3.27-.54.47-.69.21-.16.45-.24.74-.24s.53.08.74.24c.21.16.36.39.47.69.11.3.16.67.16,1.09s-.05.8-.16,1.1c-.11.3-.26.53-.47.69-.2.16-.45.24-.74.24ZM178.15,65.92c.29,0,.51-.14.67-.42.16-.28.24-.67.24-1.19,0-.34-.04-.63-.11-.87-.07-.24-.18-.42-.31-.55-.13-.13-.3-.19-.49-.19-.29,0-.51.14-.67.42-.16.28-.24.68-.24,1.19,0,.34.04.63.11.87.07.24.18.42.31.55.14.12.3.19.49.19Z"/>
    <path class="cls-13" d="M147.71,50.05c-.29,0-.53-.06-.74-.19-.21-.13-.37-.3-.48-.53-.11-.23-.17-.5-.17-.8s.06-.57.17-.8c.11-.23.27-.41.47-.54.2-.13.43-.2.7-.2.15,0,.31.03.46.08.15.05.29.14.41.25.12.11.22.27.3.46.07.19.11.42.11.7v.19h-2.28v-.39h1.82c0-.17-.03-.32-.1-.45-.07-.13-.16-.23-.28-.31-.12-.08-.26-.11-.43-.11-.18,0-.34.04-.47.14-.13.09-.23.2-.3.35-.07.14-.11.3-.11.46v.26c0,.22.04.41.12.57.08.15.19.27.33.35.14.08.3.12.48.12.12,0,.23-.02.32-.05.1-.03.18-.09.25-.15.07-.07.12-.16.16-.26l.44.12c-.05.15-.12.28-.23.39-.11.11-.24.2-.4.26-.16.06-.34.09-.54.09ZM151.96,47.02l-1.1,2.96h-.46l-1.1-2.96h.49l.82,2.36h.03l.82-2.36h.49ZM154.26,48.08v.42h-1.73v-.42h1.73ZM156.18,50.05c-.25,0-.47-.06-.65-.19-.19-.13-.34-.3-.44-.53-.11-.23-.16-.5-.16-.82s.05-.58.16-.81c.11-.23.26-.41.45-.53.19-.12.41-.19.66-.19.19,0,.35.03.46.1.11.06.2.14.26.22.06.08.11.15.14.2h.04v-1.46h.46v3.95h-.44v-.46h-.05c-.03.05-.08.12-.14.2-.06.08-.15.15-.26.22-.11.06-.27.09-.46.09ZM156.24,49.64c.18,0,.34-.05.46-.14.13-.1.22-.23.29-.4.07-.17.1-.37.1-.59s-.03-.41-.1-.58c-.06-.17-.16-.3-.29-.39-.13-.09-.28-.14-.47-.14s-.35.05-.48.15c-.13.1-.22.23-.29.4-.06.17-.09.36-.09.56s.03.4.1.58c.07.17.16.31.29.41.13.1.29.15.48.15ZM159.68,50.05c-.29,0-.53-.06-.74-.19-.21-.13-.36-.3-.48-.53-.11-.23-.17-.5-.17-.8s.06-.57.17-.8c.11-.23.27-.41.47-.54.2-.13.43-.2.7-.2.15,0,.31.03.46.08.15.05.29.14.41.25.12.11.22.27.3.46s.11.42.11.7v.19h-2.28v-.39h1.82c0-.17-.03-.32-.1-.45-.07-.13-.16-.23-.28-.31-.12-.08-.26-.11-.43-.11-.18,0-.34.04-.47.14-.13.09-.23.2-.3.35-.07.14-.11.3-.11.46v.26c0,.22.04.41.12.57.08.15.19.27.33.35.14.08.3.12.48.12.12,0,.23-.02.32-.05.1-.03.18-.09.25-.15.07-.07.13-.16.16-.26l.44.12c-.05.15-.12.28-.23.39-.11.11-.24.2-.41.26-.16.06-.34.09-.54.09ZM162.84,50.05c-.29,0-.53-.06-.74-.19-.21-.13-.36-.3-.48-.53-.11-.23-.17-.5-.17-.8s.05-.57.17-.8c.11-.23.27-.41.47-.54.2-.13.44-.2.7-.2.15,0,.31.03.46.08.15.05.29.14.41.25.12.11.22.27.3.46.07.19.11.42.11.7v.19h-2.28v-.39h1.82c0-.17-.03-.32-.1-.45-.07-.13-.16-.23-.28-.31-.12-.08-.26-.11-.43-.11-.18,0-.34.04-.47.14-.13.09-.23.2-.3.35-.07.14-.11.3-.11.46v.26c0,.22.04.41.12.57.08.15.19.27.33.35.14.08.3.12.48.12.12,0,.23-.02.32-.05.1-.03.18-.09.25-.15.07-.07.13-.16.16-.26l.44.12c-.05.15-.12.28-.23.39-.11.11-.24.2-.41.26-.16.06-.34.09-.54.09ZM164.76,51.1v-4.08h.44v.47h.05c.03-.05.08-.12.14-.2.06-.08.15-.15.26-.22.11-.06.27-.1.46-.1.25,0,.47.06.66.19.19.12.34.3.45.53.11.23.16.5.16.81s-.05.59-.16.82c-.11.23-.25.41-.44.53-.19.12-.41.19-.65.19-.19,0-.34-.03-.46-.09-.11-.06-.2-.14-.26-.22-.06-.08-.11-.15-.14-.2h-.04v1.57h-.46ZM165.21,48.51c0,.22.03.42.1.59.07.17.16.3.29.4.13.1.28.14.46.14s.35-.05.48-.15c.13-.1.22-.24.29-.41.07-.17.1-.36.1-.58s-.03-.4-.1-.56c-.06-.17-.16-.3-.29-.4-.13-.1-.29-.15-.48-.15s-.34.05-.47.14c-.13.09-.22.22-.29.39-.06.17-.1.36-.1.58ZM169.77,48.08v.42h-1.73v-.42h1.73ZM170.57,49.99l1.77-3.5v-.03h-2.04v-.42h2.53v.45l-1.76,3.5h-.5ZM174.75,50.04c-.29,0-.54-.08-.74-.24-.2-.16-.36-.39-.47-.69-.11-.3-.16-.67-.16-1.1s.05-.79.16-1.09c.11-.3.27-.54.47-.69.21-.16.45-.24.74-.24s.53.08.74.24c.21.16.36.39.47.69.11.3.16.67.16,1.09s-.05.8-.16,1.1c-.11.3-.26.53-.47.69-.2.16-.45.24-.74.24ZM174.75,49.62c.29,0,.51-.14.67-.42.16-.28.24-.67.24-1.19,0-.34-.04-.63-.11-.87-.07-.24-.18-.42-.31-.55-.13-.13-.3-.19-.49-.19-.29,0-.51.14-.67.42-.16.28-.24.68-.24,1.19,0,.34.04.63.11.87.07.24.18.42.31.55.14.12.3.19.49.19ZM178.15,50.04c-.29,0-.54-.08-.74-.24-.2-.16-.36-.39-.47-.69-.11-.3-.16-.67-.16-1.1s.05-.79.16-1.09c.11-.3.27-.54.47-.69.21-.16.45-.24.74-.24s.53.08.74.24c.21.16.36.39.47.69.11.3.16.67.16,1.09s-.05.8-.16,1.1c-.11.3-.26.53-.47.69-.2.16-.45.24-.74.24ZM178.15,49.62c.29,0,.51-.14.67-.42.16-.28.24-.67.24-1.19,0-.34-.04-.63-.11-.87-.07-.24-.18-.42-.31-.55-.13-.13-.3-.19-.49-.19-.29,0-.51.14-.67.42-.16.28-.24.68-.24,1.19,0,.34.04.63.11.87.07.24.18.42.31.55.14.12.3.19.49.19Z"/>
    <path class="cls-13" d="M147.26,33.75c-.29,0-.53-.06-.74-.19-.21-.13-.37-.3-.48-.53-.11-.23-.17-.5-.17-.8s.06-.57.17-.8c.11-.23.27-.41.47-.54.2-.13.43-.2.7-.2.15,0,.31.03.46.08.15.05.29.14.41.25.12.11.22.27.3.46.07.19.11.42.11.7v.19h-2.28v-.39h1.82c0-.17-.03-.32-.1-.45-.07-.13-.16-.23-.28-.31-.12-.08-.26-.11-.43-.11-.18,0-.34.04-.47.14-.13.09-.23.2-.3.35-.07.14-.11.3-.11.46v.26c0,.22.04.41.12.57.08.15.19.27.33.35.14.08.3.12.48.12.12,0,.23-.02.32-.05.1-.03.18-.09.25-.15.07-.07.13-.16.16-.26l.44.12c-.05.15-.12.28-.23.39-.11.11-.24.2-.4.26-.16.06-.34.09-.54.09ZM151.51,30.72l-1.1,2.96h-.46l-1.1-2.96h.49l.82,2.36h.03l.82-2.36h.49ZM153.81,31.78v.42h-1.73v-.42h1.73ZM155.73,33.75c-.25,0-.47-.06-.65-.19-.19-.13-.34-.3-.44-.53-.11-.23-.16-.5-.16-.82s.05-.58.16-.81c.11-.23.26-.41.45-.53.19-.12.41-.19.66-.19.19,0,.35.03.46.1.11.06.2.14.26.22.06.08.11.15.14.2h.04v-1.46h.46v3.95h-.44v-.46h-.05c-.03.05-.08.12-.14.2-.06.08-.15.15-.26.22-.11.06-.27.09-.46.09ZM155.79,33.34c.18,0,.34-.05.46-.14.13-.1.22-.23.29-.4.07-.17.1-.37.1-.59s-.03-.41-.1-.58c-.06-.17-.16-.3-.29-.39-.13-.09-.28-.14-.47-.14s-.35.05-.48.15c-.13.1-.22.23-.29.4-.06.17-.09.36-.09.56s.03.4.1.58c.07.17.16.31.29.41.13.1.29.15.48.15ZM159.23,33.75c-.29,0-.53-.06-.74-.19-.21-.13-.36-.3-.48-.53-.11-.23-.17-.5-.17-.8s.06-.57.17-.8c.11-.23.27-.41.47-.54.2-.13.43-.2.7-.2.15,0,.31.03.46.08s.29.14.41.25c.12.11.22.27.3.46.07.19.11.42.11.7v.19h-2.28v-.39h1.82c0-.17-.03-.32-.1-.45-.07-.13-.16-.23-.28-.31-.12-.08-.26-.11-.43-.11-.18,0-.34.04-.47.14-.13.09-.23.2-.3.35-.07.14-.11.3-.11.46v.26c0,.22.04.41.12.57.08.15.19.27.33.35.14.08.3.12.48.12.12,0,.23-.02.32-.05.1-.03.18-.09.25-.15.07-.07.12-.16.16-.26l.44.12c-.05.15-.12.28-.23.39-.11.11-.24.2-.4.26-.16.06-.34.09-.54.09ZM162.39,33.75c-.29,0-.53-.06-.74-.19-.21-.13-.36-.3-.48-.53-.11-.23-.17-.5-.17-.8s.05-.57.17-.8c.11-.23.27-.41.47-.54.2-.13.44-.2.7-.2.15,0,.31.03.46.08.15.05.29.14.41.25.12.11.22.27.3.46.07.19.11.42.11.7v.19h-2.28v-.39h1.82c0-.17-.03-.32-.1-.45-.07-.13-.16-.23-.28-.31-.12-.08-.26-.11-.43-.11-.18,0-.34.04-.47.14-.13.09-.23.2-.3.35-.07.14-.11.3-.11.46v.26c0,.22.04.41.12.57.08.15.19.27.33.35.14.08.3.12.48.12.12,0,.23-.02.32-.05.1-.03.18-.09.25-.15.07-.07.13-.16.16-.26l.44.12c-.05.15-.12.28-.23.39-.11.11-.24.2-.41.26-.16.06-.34.09-.54.09ZM164.31,34.8v-4.08h.44v.47h.05c.03-.05.08-.12.14-.2.06-.08.15-.15.26-.22.11-.06.27-.1.46-.1.25,0,.47.06.66.19.19.12.34.3.45.53.11.23.16.5.16.81s-.05.59-.16.82c-.11.23-.25.41-.44.53-.19.12-.41.19-.65.19-.19,0-.34-.03-.46-.09-.11-.06-.2-.14-.26-.22-.06-.08-.11-.15-.14-.2h-.04v1.57h-.46ZM164.76,32.21c0,.22.03.42.1.59.07.17.16.3.29.4.13.1.28.14.46.14s.35-.05.48-.15c.13-.1.22-.24.29-.41.07-.17.1-.36.1-.58s-.03-.4-.1-.56c-.06-.17-.16-.3-.29-.4-.13-.1-.29-.15-.48-.15s-.34.05-.47.14c-.13.09-.22.22-.29.39-.06.17-.1.36-.1.58ZM169.32,31.78v.42h-1.73v-.42h1.73ZM171.38,33.74c-.26,0-.5-.05-.7-.14-.2-.1-.36-.23-.47-.39-.11-.17-.17-.36-.17-.57,0-.17.03-.32.1-.46.07-.14.16-.26.27-.36.12-.1.25-.16.39-.18v-.02c-.19-.05-.34-.16-.45-.32-.11-.16-.17-.35-.17-.56,0-.2.05-.38.15-.54.1-.16.24-.28.42-.37.18-.09.39-.14.62-.14s.43.05.61.14c.18.09.32.22.42.37.1.16.16.34.16.54,0,.21-.06.4-.17.56-.11.16-.26.27-.45.32v.02c.14.03.27.09.39.18.11.1.21.21.27.36.07.14.1.3.1.46,0,.21-.06.4-.17.57-.11.17-.27.3-.47.39-.2.09-.43.14-.7.14ZM171.38,33.32c.18,0,.33-.03.46-.09.13-.06.23-.14.3-.25.07-.11.11-.23.11-.37,0-.15-.04-.28-.12-.4-.08-.11-.18-.2-.31-.27-.13-.07-.28-.1-.45-.1s-.32.03-.45.1c-.13.07-.23.16-.31.27-.07.11-.11.25-.11.4,0,.14.03.26.1.37.07.11.17.19.3.25.13.06.29.09.47.09ZM171.38,31.44c.14,0,.27-.03.38-.08.11-.06.2-.14.26-.24.06-.1.1-.22.1-.36,0-.13-.03-.25-.09-.35-.06-.1-.15-.18-.26-.23-.11-.06-.24-.08-.38-.08s-.28.03-.39.08c-.11.05-.2.13-.26.23-.06.1-.09.22-.09.35,0,.14.03.26.09.36.06.1.15.18.26.24.11.06.24.08.38.08ZM174.75,33.74c-.29,0-.54-.08-.74-.24-.2-.16-.36-.39-.47-.69-.11-.3-.16-.67-.16-1.1s.05-.79.16-1.09c.11-.3.27-.54.47-.69.21-.16.45-.24.74-.24s.53.08.74.24c.21.16.36.39.47.69.11.3.16.67.16,1.09s-.05.8-.16,1.1c-.11.3-.26.53-.47.69-.2.16-.45.24-.74.24ZM174.75,33.32c.29,0,.51-.14.67-.42.16-.28.24-.67.24-1.19,0-.34-.04-.63-.11-.87-.07-.24-.18-.42-.31-.55-.13-.13-.3-.19-.49-.19-.29,0-.51.14-.67.42-.16.28-.24.68-.24,1.19,0,.34.04.63.11.87.07.24.18.42.31.55.14.12.3.19.49.19ZM178.15,33.74c-.29,0-.54-.08-.74-.24-.2-.16-.36-.39-.47-.69-.11-.3-.16-.67-.16-1.1s.05-.79.16-1.09c.11-.3.27-.54.47-.69.21-.16.45-.24.74-.24s.53.08.74.24c.21.16.36.39.47.69.11.3.16.67.16,1.09s-.05.8-.16,1.1c-.11.3-.26.53-.47.69-.2.16-.45.24-.74.24ZM178.15,33.32c.29,0,.51-.14.67-.42.16-.28.24-.67.24-1.19,0-.34-.04-.63-.11-.87-.07-.24-.18-.42-.31-.55-.13-.13-.3-.19-.49-.19-.29,0-.51.14-.67.42-.16.28-.24.68-.24,1.19,0,.34.04.63.11.87.07.24.18.42.31.55.14.12.3.19.49.19Z"/>
    <path class="cls-13" d="M147.3,82.65c-.29,0-.53-.06-.74-.19-.21-.13-.36-.3-.48-.53-.11-.23-.17-.5-.17-.8s.06-.57.17-.8c.11-.23.27-.41.47-.54.2-.13.43-.2.7-.2.15,0,.31.03.46.08.15.05.29.14.41.25.12.11.22.27.3.46.07.19.11.42.11.7v.19h-2.28v-.39h1.82c0-.17-.03-.32-.1-.45-.07-.13-.16-.24-.28-.31-.12-.08-.26-.11-.43-.11-.18,0-.34.05-.47.14-.13.09-.23.2-.3.35-.07.14-.11.3-.11.46v.26c0,.22.04.41.12.57.08.15.19.27.33.35.14.08.3.12.48.12.12,0,.23-.02.32-.05.1-.03.18-.09.25-.15.07-.07.12-.16.16-.26l.44.12c-.05.15-.12.28-.23.39-.11.11-.24.2-.4.26-.16.06-.34.09-.54.09ZM151.55,79.62l-1.1,2.96h-.46l-1.1-2.96h.49l.82,2.36h.03l.82-2.36h.49ZM153.85,80.68v.42h-1.73v-.42h1.73ZM155.77,82.65c-.25,0-.47-.06-.65-.19-.19-.13-.34-.3-.44-.53-.11-.23-.16-.5-.16-.82s.05-.58.16-.81c.11-.23.26-.41.45-.53.19-.12.41-.19.66-.19.19,0,.35.03.46.1.11.06.2.14.26.22.06.08.11.15.14.2h.04v-1.46h.46v3.95h-.44v-.46h-.05c-.03.05-.08.12-.14.2-.06.08-.15.15-.26.22-.11.06-.27.09-.46.09ZM155.83,82.24c.18,0,.34-.05.46-.14.13-.1.22-.23.29-.4.07-.17.1-.37.1-.59s-.03-.42-.1-.58c-.06-.17-.16-.3-.29-.39-.13-.09-.28-.14-.47-.14s-.35.05-.48.15c-.13.1-.22.23-.29.4-.06.17-.09.35-.09.56s.03.4.1.57c.07.17.16.31.29.41.13.1.29.15.48.15ZM159.27,82.65c-.29,0-.53-.06-.74-.19-.21-.13-.36-.3-.48-.53-.11-.23-.17-.5-.17-.8s.06-.57.17-.8c.11-.23.27-.41.47-.54.2-.13.43-.2.7-.2.15,0,.31.03.46.08.15.05.29.14.41.25.12.11.22.27.3.46.07.19.11.42.11.7v.19h-2.28v-.39h1.82c0-.17-.03-.32-.1-.45-.07-.13-.16-.24-.28-.31-.12-.08-.26-.11-.43-.11-.18,0-.34.05-.47.14-.13.09-.23.2-.3.35-.07.14-.11.3-.11.46v.26c0,.22.04.41.12.57.08.15.19.27.33.35.14.08.3.12.48.12.12,0,.23-.02.32-.05.1-.03.18-.09.25-.15.07-.07.13-.16.16-.26l.44.12c-.05.15-.12.28-.23.39-.11.11-.24.2-.41.26-.16.06-.34.09-.54.09ZM162.43,82.65c-.29,0-.53-.06-.74-.19-.21-.13-.36-.3-.48-.53-.11-.23-.17-.5-.17-.8s.06-.57.17-.8c.11-.23.27-.41.47-.54.2-.13.44-.2.7-.2.15,0,.31.03.46.08.15.05.29.14.41.25.12.11.22.27.3.46.07.19.11.42.11.7v.19h-2.28v-.39h1.82c0-.17-.03-.32-.1-.45-.07-.13-.16-.24-.28-.31-.12-.08-.26-.11-.43-.11-.18,0-.34.05-.47.14-.13.09-.23.2-.3.35s-.11.3-.11.46v.26c0,.22.04.41.12.57.08.15.19.27.33.35.14.08.3.12.48.12.12,0,.23-.02.32-.05.1-.03.18-.09.25-.15.07-.07.13-.16.16-.26l.44.12c-.05.15-.12.28-.23.39-.11.11-.24.2-.41.26-.16.06-.34.09-.54.09ZM164.35,83.7v-4.08h.44v.47h.05c.03-.05.08-.12.14-.2.06-.08.15-.15.26-.22.11-.06.27-.1.46-.1.25,0,.47.06.66.19s.34.3.45.53c.11.23.16.5.16.81s-.05.59-.16.82c-.11.23-.25.41-.44.53-.19.12-.41.19-.65.19-.19,0-.34-.03-.46-.09-.11-.06-.2-.14-.26-.22-.06-.08-.11-.15-.14-.2h-.04v1.57h-.46ZM164.8,81.11c0,.22.03.42.1.59.07.17.16.3.29.4.13.1.28.14.46.14s.35-.05.48-.15c.13-.1.22-.24.29-.41.07-.17.1-.36.1-.57s-.03-.4-.1-.56c-.06-.17-.16-.3-.29-.4-.13-.1-.29-.15-.48-.15s-.34.05-.47.14c-.13.09-.22.22-.29.39-.06.17-.1.36-.1.58ZM169.36,80.68v.42h-1.73v-.42h1.73ZM171.39,82.64c-.23,0-.43-.04-.61-.13-.18-.09-.33-.21-.44-.37-.11-.16-.17-.34-.18-.54h.46c.02.18.1.33.24.44.15.12.32.17.52.17.16,0,.31-.04.43-.11.13-.08.23-.18.3-.31.07-.13.11-.28.11-.45s-.04-.33-.11-.46c-.07-.14-.18-.24-.31-.32-.13-.08-.28-.12-.45-.12-.12,0-.25.02-.37.06-.13.04-.23.09-.31.14l-.45-.05.24-1.95h2.05v.42h-1.65l-.14,1.16h.02c.08-.06.18-.12.3-.16.12-.04.25-.06.38-.06.24,0,.46.06.65.17.19.11.34.27.45.47.11.2.16.43.16.68s-.06.48-.17.68c-.11.2-.27.35-.46.47-.2.11-.42.17-.67.17ZM174.75,82.64c-.29,0-.54-.08-.74-.24-.2-.16-.36-.39-.47-.69-.11-.3-.16-.67-.16-1.1s.05-.79.16-1.09c.11-.3.27-.54.47-.69.21-.16.45-.24.74-.24s.53.08.74.24c.21.16.36.39.47.69.11.3.16.67.16,1.09s-.05.8-.16,1.1c-.11.3-.26.53-.47.69-.2.16-.45.24-.74.24ZM174.75,82.22c.29,0,.51-.14.67-.42.16-.28.24-.67.24-1.19,0-.34-.04-.63-.11-.87-.07-.24-.18-.42-.31-.55-.13-.13-.3-.19-.49-.19-.29,0-.51.14-.67.42-.16.28-.24.68-.24,1.19,0,.34.04.63.11.87.07.24.18.42.31.55.14.12.3.19.49.19ZM178.15,82.64c-.29,0-.54-.08-.74-.24-.2-.16-.36-.39-.47-.69-.11-.3-.16-.67-.16-1.1s.05-.79.16-1.09c.11-.3.27-.54.47-.69.21-.16.45-.24.74-.24s.53.08.74.24c.21.16.36.39.47.69.11.3.16.67.16,1.09s-.05.8-.16,1.1c-.11.3-.26.53-.47.69-.2.16-.45.24-.74.24ZM178.15,82.22c.29,0,.51-.14.67-.42.16-.28.24-.67.24-1.19,0-.34-.04-.63-.11-.87-.07-.24-.18-.42-.31-.55-.13-.13-.3-.19-.49-.19-.29,0-.51.14-.67.42-.16.28-.24.68-.24,1.19,0,.34.04.63.11.87.07.24.18.42.31.55.14.12.3.19.49.19Z"/>
    <path class="cls-13" d="M147.12,98.95c-.29,0-.53-.06-.74-.19-.21-.13-.37-.3-.48-.53-.11-.23-.17-.5-.17-.8s.06-.57.17-.8c.11-.23.27-.41.47-.54.2-.13.43-.2.7-.2.15,0,.31.03.46.08.15.05.29.14.41.25.12.11.22.27.3.46.07.19.11.42.11.7v.19h-2.28v-.39h1.82c0-.17-.03-.32-.1-.45-.07-.13-.16-.24-.28-.31-.12-.08-.26-.11-.43-.11-.18,0-.34.05-.47.14-.13.09-.23.2-.3.35-.07.14-.11.3-.11.46v.26c0,.22.04.41.12.57.08.15.19.27.33.35.14.08.3.12.48.12.12,0,.23-.02.32-.05.1-.03.18-.09.25-.15.07-.07.12-.16.16-.26l.44.12c-.05.15-.12.28-.23.39-.11.11-.24.2-.4.26-.16.06-.34.09-.54.09ZM151.37,95.92l-1.1,2.96h-.46l-1.1-2.96h.49l.82,2.36h.03l.82-2.36h.49ZM153.67,96.98v.42h-1.73v-.42h1.73ZM155.59,98.95c-.25,0-.47-.06-.65-.19-.19-.13-.34-.3-.44-.53-.11-.23-.16-.5-.16-.82s.05-.58.16-.81c.11-.23.26-.41.45-.53.19-.12.41-.19.66-.19.19,0,.35.03.46.1.11.06.2.14.26.22.06.08.11.15.14.2h.04v-1.46h.46v3.95h-.44v-.46h-.05c-.03.05-.08.12-.14.2-.06.08-.15.15-.26.22-.11.06-.27.09-.46.09ZM155.65,98.54c.18,0,.34-.05.46-.14.13-.1.22-.23.29-.4.07-.17.1-.37.1-.59s-.03-.42-.1-.58c-.06-.17-.16-.3-.29-.39-.13-.09-.28-.14-.47-.14s-.35.05-.48.15c-.13.1-.22.23-.29.4-.06.17-.09.35-.09.56s.03.4.1.57c.07.17.16.31.29.41.13.1.29.15.48.15ZM159.09,98.95c-.29,0-.53-.06-.74-.19-.21-.13-.36-.3-.48-.53-.11-.23-.17-.5-.17-.8s.06-.57.17-.8c.11-.23.27-.41.47-.54.2-.13.43-.2.7-.2.15,0,.31.03.46.08.15.05.29.14.41.25.12.11.22.27.3.46.07.19.11.42.11.7v.19h-2.28v-.39h1.82c0-.17-.03-.32-.1-.45-.07-.13-.16-.24-.28-.31-.12-.08-.26-.11-.43-.11-.18,0-.34.05-.47.14-.13.09-.23.2-.3.35-.07.14-.11.3-.11.46v.26c0,.22.04.41.12.57.08.15.19.27.33.35.14.08.3.12.48.12.12,0,.23-.02.32-.05.1-.03.18-.09.25-.15.07-.07.13-.16.16-.26l.44.12c-.05.15-.12.28-.23.39-.11.11-.24.2-.41.26-.16.06-.34.09-.54.09ZM162.25,98.95c-.29,0-.53-.06-.74-.19-.21-.13-.36-.3-.48-.53-.11-.23-.17-.5-.17-.8s.05-.57.17-.8c.11-.23.27-.41.47-.54.2-.13.44-.2.7-.2.15,0,.31.03.46.08.15.05.29.14.41.25.12.11.22.27.3.46.07.19.11.42.11.7v.19h-2.28v-.39h1.82c0-.17-.03-.32-.1-.45-.07-.13-.16-.24-.28-.31-.12-.08-.26-.11-.43-.11-.18,0-.34.05-.47.14-.13.09-.23.2-.3.35s-.11.3-.11.46v.26c0,.22.04.41.12.57.08.15.19.27.33.35.14.08.3.12.48.12.12,0,.23-.02.32-.05.1-.03.18-.09.25-.15.07-.07.13-.16.16-.26l.44.12c-.05.15-.12.28-.23.39-.11.11-.24.2-.41.26-.16.06-.34.09-.54.09ZM164.17,100v-4.08h.44v.47h.05c.03-.05.08-.12.14-.2.06-.08.15-.15.26-.22.11-.06.27-.1.46-.1.25,0,.47.06.66.19s.34.3.45.53c.11.23.16.5.16.81s-.05.59-.16.82c-.11.23-.25.41-.44.53-.19.12-.41.19-.65.19-.19,0-.34-.03-.46-.09-.11-.06-.2-.14-.26-.22-.06-.08-.11-.15-.14-.2h-.04v1.57h-.46ZM164.62,97.41c0,.22.03.42.1.59.07.17.16.3.29.4.13.1.28.14.46.14s.35-.05.48-.15c.13-.1.22-.24.29-.41.07-.17.1-.36.1-.57s-.03-.4-.1-.56c-.06-.17-.16-.3-.29-.4-.13-.1-.29-.15-.48-.15s-.34.05-.47.14c-.13.09-.22.22-.29.39-.06.17-.1.36-.1.58ZM169.18,96.98v.42h-1.73v-.42h1.73ZM169.88,98.08v-.39l1.74-2.75h.29v.61h-.19l-1.31,2.08v.03h2.34v.42h-2.86ZM171.74,98.89v-3.95h.46v3.95h-.46ZM174.75,98.94c-.29,0-.54-.08-.74-.24-.2-.16-.36-.39-.47-.69-.11-.3-.16-.67-.16-1.1s.05-.79.16-1.09c.11-.3.27-.54.47-.69.21-.16.45-.24.74-.24s.53.08.74.24c.21.16.36.39.47.69.11.3.16.67.16,1.09s-.05.8-.16,1.1c-.11.3-.26.53-.47.69-.2.16-.45.24-.74.24ZM174.75,98.52c.29,0,.51-.14.67-.42.16-.28.24-.67.24-1.19,0-.34-.04-.63-.11-.87-.07-.24-.18-.42-.31-.55-.13-.13-.3-.19-.49-.19-.29,0-.51.14-.67.42-.16.28-.24.68-.24,1.19,0,.34.04.63.11.87.07.24.18.42.31.55.14.12.3.19.49.19ZM178.15,98.94c-.29,0-.54-.08-.74-.24-.2-.16-.36-.39-.47-.69-.11-.3-.16-.67-.16-1.1s.05-.79.16-1.09c.11-.3.27-.54.47-.69.21-.16.45-.24.74-.24s.53.08.74.24c.21.16.36.39.47.69.11.3.16.67.16,1.09s-.05.8-.16,1.1c-.11.3-.26.53-.47.69-.2.16-.45.24-.74.24ZM178.15,98.52c.29,0,.51-.14.67-.42.16-.28.24-.67.24-1.19,0-.34-.04-.63-.11-.87-.07-.24-.18-.42-.31-.55-.13-.13-.3-.19-.49-.19-.29,0-.51.14-.67.42-.16.28-.24.68-.24,1.19,0,.34.04.63.11.87.07.24.18.42.31.55.14.12.3.19.49.19Z"/>
    <path class="cls-13" d="M147.21,115.25c-.29,0-.53-.06-.74-.19-.21-.13-.37-.3-.48-.53-.11-.23-.17-.5-.17-.8s.06-.57.17-.8c.11-.23.27-.41.47-.54.2-.13.43-.2.7-.2.15,0,.31.03.46.08.15.05.29.14.41.25.12.11.22.27.3.46s.11.42.11.7v.19h-2.28v-.39h1.82c0-.17-.03-.32-.1-.45-.07-.13-.16-.24-.28-.31-.12-.08-.26-.11-.43-.11-.18,0-.34.05-.47.14-.13.09-.23.2-.3.35-.07.14-.11.3-.11.46v.26c0,.22.04.41.12.57.08.15.19.27.33.35.14.08.3.12.48.12.12,0,.23-.02.32-.05.1-.03.18-.09.25-.15.07-.07.12-.16.16-.26l.44.12c-.05.15-.12.28-.23.39-.11.11-.24.2-.4.26-.16.06-.34.09-.54.09ZM151.46,112.22l-1.1,2.96h-.46l-1.1-2.96h.49l.82,2.36h.03l.82-2.36h.49ZM153.76,113.28v.42h-1.73v-.42h1.73ZM155.68,115.25c-.25,0-.47-.06-.65-.19-.19-.13-.34-.3-.44-.53-.11-.23-.16-.5-.16-.82s.05-.58.16-.81c.11-.23.26-.41.45-.53.19-.12.41-.19.66-.19.19,0,.35.03.46.1.11.06.2.14.26.22.06.08.11.15.14.2h.04v-1.46h.46v3.95h-.44v-.46h-.05c-.03.05-.08.12-.14.2-.06.08-.15.15-.26.22-.11.06-.27.09-.46.09ZM155.74,114.84c.18,0,.34-.05.46-.14.13-.1.22-.23.29-.4.07-.17.1-.37.1-.59s-.03-.42-.1-.58c-.06-.17-.16-.3-.29-.39-.13-.09-.28-.14-.47-.14s-.35.05-.48.15c-.13.1-.22.23-.29.4-.06.17-.09.35-.09.56s.03.4.1.57c.07.17.16.31.29.41.13.1.29.15.48.15ZM159.18,115.25c-.29,0-.53-.06-.74-.19-.21-.13-.36-.3-.48-.53-.11-.23-.17-.5-.17-.8s.06-.57.17-.8c.11-.23.27-.41.47-.54.2-.13.43-.2.7-.2.15,0,.31.03.46.08.15.05.29.14.41.25.12.11.22.27.3.46s.11.42.11.7v.19h-2.28v-.39h1.82c0-.17-.03-.32-.1-.45-.07-.13-.16-.24-.28-.31-.12-.08-.26-.11-.43-.11-.18,0-.34.05-.47.14-.13.09-.23.2-.3.35s-.11.3-.11.46v.26c0,.22.04.41.12.57.08.15.19.27.33.35.14.08.3.12.48.12.12,0,.23-.02.32-.05.1-.03.18-.09.25-.15.07-.07.13-.16.16-.26l.44.12c-.05.15-.12.28-.23.39-.11.11-.24.2-.41.26-.16.06-.34.09-.54.09ZM162.34,115.25c-.29,0-.53-.06-.74-.19-.21-.13-.36-.3-.48-.53-.11-.23-.17-.5-.17-.8s.05-.57.17-.8c.11-.23.27-.41.47-.54.2-.13.44-.2.7-.2.15,0,.31.03.46.08.15.05.29.14.41.25.12.11.22.27.3.46.07.19.11.42.11.7v.19h-2.28v-.39h1.82c0-.17-.03-.32-.1-.45-.07-.13-.16-.24-.28-.31-.12-.08-.26-.11-.43-.11-.18,0-.34.05-.47.14-.13.09-.23.2-.3.35s-.11.3-.11.46v.26c0,.22.04.41.12.57.08.15.19.27.33.35.14.08.3.12.48.12.12,0,.23-.02.32-.05.1-.03.18-.09.25-.15.07-.07.13-.16.16-.26l.44.12c-.05.15-.12.28-.23.39-.11.11-.24.2-.41.26-.16.06-.34.09-.54.09ZM164.26,116.3v-4.08h.44v.47h.05c.03-.05.08-.12.14-.2.06-.08.15-.15.26-.22.11-.06.27-.1.46-.1.25,0,.47.06.66.19.19.12.34.3.45.53.11.23.16.5.16.81s-.05.59-.16.82c-.11.23-.25.41-.44.53-.19.12-.41.19-.65.19-.19,0-.34-.03-.46-.09-.11-.06-.2-.14-.26-.22-.06-.08-.11-.15-.14-.2h-.04v1.57h-.46ZM164.71,113.71c0,.22.03.42.1.59.07.17.16.3.29.4.13.1.28.14.46.14s.35-.05.48-.15c.13-.1.22-.24.29-.41.07-.17.1-.36.1-.57s-.03-.4-.1-.56c-.06-.17-.16-.3-.29-.4-.13-.1-.29-.15-.48-.15s-.34.05-.47.14c-.13.09-.22.22-.29.39-.06.17-.1.36-.1.58ZM169.27,113.28v.42h-1.73v-.42h1.73ZM171.34,115.24c-.25,0-.48-.04-.68-.13-.2-.09-.36-.21-.47-.36-.12-.16-.18-.34-.19-.55h.49c.01.13.05.24.13.33.08.09.18.16.3.21.12.05.26.07.42.07.17,0,.32-.03.45-.09.13-.06.23-.14.31-.25s.11-.23.11-.37c0-.15-.04-.27-.11-.38-.07-.11-.18-.2-.32-.26-.14-.06-.31-.09-.51-.09h-.32v-.42h.32c.16,0,.29-.03.41-.09.12-.06.21-.14.28-.24.07-.1.1-.22.1-.36s-.03-.25-.09-.35c-.06-.1-.14-.18-.25-.23-.11-.06-.23-.08-.38-.08-.14,0-.26.02-.39.07-.12.05-.22.12-.29.21-.08.09-.12.2-.12.34h-.46c0-.21.07-.39.19-.54.12-.16.27-.28.46-.37.19-.09.4-.13.63-.13.24,0,.45.05.63.15.17.1.31.23.4.39.09.16.14.33.14.52,0,.22-.06.41-.18.57-.12.16-.27.27-.47.33v.03c.25.04.44.15.58.32.14.17.21.38.21.63,0,.21-.06.41-.18.58-.12.17-.27.3-.47.4-.2.1-.43.15-.69.15ZM174.75,115.24c-.29,0-.54-.08-.74-.24-.2-.16-.36-.39-.47-.69-.11-.3-.16-.67-.16-1.1s.05-.79.16-1.09c.11-.3.27-.54.47-.69.21-.16.45-.24.74-.24s.53.08.74.24c.21.16.36.39.47.69.11.3.16.67.16,1.09s-.05.8-.16,1.1c-.11.3-.26.53-.47.69-.2.16-.45.24-.74.24ZM174.75,114.82c.29,0,.51-.14.67-.42.16-.28.24-.67.24-1.19,0-.34-.04-.63-.11-.87-.07-.24-.18-.42-.31-.55-.13-.13-.3-.19-.49-.19-.29,0-.51.14-.67.42-.16.28-.24.68-.24,1.19,0,.34.04.63.11.87.07.24.18.42.31.55.14.12.3.19.49.19ZM178.15,115.24c-.29,0-.54-.08-.74-.24-.2-.16-.36-.39-.47-.69-.11-.3-.16-.67-.16-1.1s.05-.79.16-1.09c.11-.3.27-.54.47-.69.21-.16.45-.24.74-.24s.53.08.74.24c.21.16.36.39.47.69.11.3.16.67.16,1.09s-.05.8-.16,1.1c-.11.3-.26.53-.47.69-.2.16-.45.24-.74.24ZM178.15,114.82c.29,0,.51-.14.67-.42.16-.28.24-.67.24-1.19,0-.34-.04-.63-.11-.87-.07-.24-.18-.42-.31-.55-.13-.13-.3-.19-.49-.19-.29,0-.51.14-.67.42-.16.28-.24.68-.24,1.19,0,.34.04.63.11.87.07.24.18.42.31.55.14.12.3.19.49.19Z"/>
    <path class="cls-13" d="M147.5,131.55c-.29,0-.53-.06-.74-.19-.21-.13-.36-.3-.48-.53-.11-.23-.17-.5-.17-.8s.06-.57.17-.8c.11-.23.27-.41.47-.54.2-.13.43-.2.7-.2.15,0,.31.03.46.08.15.05.29.14.41.25.12.11.22.27.3.46.07.19.11.42.11.7v.19h-2.28v-.39h1.82c0-.17-.03-.32-.1-.45-.07-.13-.16-.24-.28-.31-.12-.08-.26-.11-.43-.11-.18,0-.34.05-.47.14-.13.09-.23.2-.3.35-.07.14-.11.3-.11.46v.26c0,.22.04.41.12.57.08.15.19.27.33.35.14.08.3.12.48.12.12,0,.23-.02.32-.05.1-.03.18-.09.25-.15.07-.07.12-.16.16-.26l.44.12c-.05.15-.12.28-.23.39-.11.11-.24.2-.4.26-.16.06-.34.09-.54.09ZM151.76,128.52l-1.1,2.96h-.46l-1.1-2.96h.49l.82,2.36h.03l.82-2.36h.49ZM154.05,129.58v.42h-1.73v-.42h1.73ZM155.98,131.55c-.25,0-.47-.06-.65-.19-.19-.13-.34-.3-.44-.53-.11-.23-.16-.5-.16-.82s.05-.58.16-.81c.11-.23.26-.41.45-.53.19-.12.41-.19.66-.19.19,0,.35.03.46.1.11.06.2.14.26.22.06.08.11.15.14.2h.04v-1.46h.46v3.95h-.44v-.46h-.05c-.03.05-.08.12-.14.2-.06.08-.15.15-.26.22-.11.06-.27.09-.46.09ZM156.04,131.14c.18,0,.34-.05.46-.14.13-.1.22-.23.29-.4.07-.17.1-.37.1-.59s-.03-.42-.1-.58c-.06-.17-.16-.3-.29-.39-.13-.09-.28-.14-.47-.14s-.35.05-.48.15c-.13.1-.22.23-.29.4-.06.17-.09.35-.09.56s.03.4.1.57c.07.17.16.31.29.41.13.1.29.15.48.15ZM159.47,131.55c-.29,0-.53-.06-.74-.19-.21-.13-.36-.3-.48-.53-.11-.23-.17-.5-.17-.8s.06-.57.17-.8c.11-.23.27-.41.47-.54.2-.13.43-.2.7-.2.15,0,.31.03.46.08.15.05.29.14.41.25.12.11.22.27.3.46.07.19.11.42.11.7v.19h-2.28v-.39h1.82c0-.17-.03-.32-.1-.45-.07-.13-.16-.24-.28-.31-.12-.08-.26-.11-.43-.11-.18,0-.34.05-.47.14-.13.09-.23.2-.3.35-.07.14-.11.3-.11.46v.26c0,.22.04.41.12.57.08.15.19.27.33.35.14.08.3.12.48.12.12,0,.23-.02.32-.05.1-.03.18-.09.25-.15.07-.07.13-.16.16-.26l.44.12c-.05.15-.12.28-.23.39-.11.11-.24.2-.41.26-.16.06-.34.09-.54.09ZM162.64,131.55c-.29,0-.53-.06-.74-.19-.21-.13-.36-.3-.48-.53-.11-.23-.17-.5-.17-.8s.06-.57.17-.8c.11-.23.27-.41.47-.54.2-.13.43-.2.7-.2.15,0,.31.03.46.08.15.05.29.14.41.25.12.11.22.27.3.46.07.19.11.42.11.7v.19h-2.28v-.39h1.82c0-.17-.03-.32-.1-.45-.07-.13-.16-.24-.28-.31-.12-.08-.26-.11-.43-.11-.18,0-.34.05-.47.14-.13.09-.23.2-.3.35s-.11.3-.11.46v.26c0,.22.04.41.12.57.08.15.19.27.33.35.14.08.3.12.48.12.12,0,.23-.02.32-.05.1-.03.18-.09.25-.15.07-.07.13-.16.16-.26l.44.12c-.05.15-.12.28-.23.39-.11.11-.24.2-.41.26-.16.06-.34.09-.54.09ZM164.56,132.6v-4.08h.44v.47h.05c.03-.05.08-.12.14-.2.06-.08.15-.15.26-.22.11-.06.27-.1.46-.1.25,0,.47.06.66.19s.34.3.45.53c.11.23.16.5.16.81s-.05.59-.16.82c-.11.23-.25.41-.44.53-.19.12-.41.19-.65.19-.19,0-.34-.03-.46-.09-.11-.06-.2-.14-.26-.22-.06-.08-.11-.15-.14-.2h-.04v1.57h-.46ZM165,130.01c0,.22.03.42.1.59.07.17.16.3.29.4.13.1.28.14.46.14s.35-.05.48-.15c.13-.1.23-.24.29-.41.07-.17.1-.36.1-.57s-.03-.4-.1-.56c-.06-.17-.16-.3-.29-.4-.13-.1-.29-.15-.48-.15s-.34.05-.47.14c-.13.09-.22.22-.29.39-.06.17-.1.36-.1.58ZM169.56,129.58v.42h-1.73v-.42h1.73ZM170.17,131.49v-.35l1.3-1.43c.15-.17.28-.31.38-.44.1-.12.17-.24.22-.35.05-.11.07-.23.07-.35,0-.14-.03-.26-.1-.36-.07-.1-.16-.18-.27-.24-.11-.06-.24-.08-.39-.08-.15,0-.28.03-.4.09-.11.06-.2.15-.26.26-.06.11-.09.24-.09.39h-.46c0-.23.05-.43.16-.61.11-.17.25-.31.44-.41.19-.1.39-.15.62-.15s.44.05.62.15c.18.1.32.23.42.4.1.17.15.35.15.55,0,.15-.03.29-.08.43-.05.14-.14.29-.27.46-.13.17-.3.37-.53.62l-.89.95v.03h1.84v.42h-2.49ZM174.75,131.54c-.29,0-.54-.08-.74-.24-.2-.16-.36-.39-.47-.69-.11-.3-.16-.67-.16-1.1s.05-.79.16-1.09c.11-.3.27-.54.47-.69.21-.16.45-.24.74-.24s.53.08.74.24c.21.16.36.39.47.69.11.3.16.67.16,1.09s-.05.8-.16,1.1c-.11.3-.26.53-.47.69-.2.16-.45.24-.74.24ZM174.75,131.12c.29,0,.51-.14.67-.42.16-.28.24-.67.24-1.19,0-.34-.04-.63-.11-.87-.07-.24-.18-.42-.31-.55-.13-.13-.3-.19-.49-.19-.29,0-.51.14-.67.42-.16.28-.24.68-.24,1.19,0,.34.04.63.11.87.07.24.18.42.31.55.14.12.3.19.49.19ZM178.15,131.54c-.29,0-.54-.08-.74-.24-.2-.16-.36-.39-.47-.69-.11-.3-.16-.67-.16-1.1s.05-.79.16-1.09c.11-.3.27-.54.47-.69.21-.16.45-.24.74-.24s.53.08.74.24c.21.16.36.39.47.69.11.3.16.67.16,1.09s-.05.8-.16,1.1c-.11.3-.26.53-.47.69-.2.16-.45.24-.74.24ZM178.15,131.12c.29,0,.51-.14.67-.42.16-.28.24-.67.24-1.19,0-.34-.04-.63-.11-.87-.07-.24-.18-.42-.31-.55-.13-.13-.3-.19-.49-.19-.29,0-.51.14-.67.42-.16.28-.24.68-.24,1.19,0,.34.04.63.11.87.07.24.18.42.31.55.14.12.3.19.49.19Z"/>
    <path class="cls-13" d="M148.62,147.85c-.29,0-.53-.06-.74-.19-.21-.13-.36-.3-.48-.53-.11-.23-.17-.5-.17-.8s.05-.57.17-.8c.11-.23.27-.41.47-.54.2-.13.44-.2.7-.2.15,0,.31.03.46.08.15.05.29.14.41.25.12.11.22.27.3.46.07.19.11.42.11.7v.19h-2.28v-.39h1.82c0-.17-.03-.32-.1-.45-.07-.13-.16-.24-.28-.31-.12-.08-.26-.11-.43-.11-.18,0-.34.05-.47.14-.13.09-.23.2-.3.35s-.11.3-.11.46v.26c0,.22.04.41.12.57.08.15.19.27.33.35.14.08.3.12.48.12.12,0,.23-.02.32-.05.1-.03.18-.09.25-.15.07-.07.13-.16.16-.26l.44.12c-.05.15-.12.28-.23.39-.11.11-.24.2-.41.26-.16.06-.34.09-.54.09ZM152.88,144.82l-1.1,2.96h-.46l-1.1-2.96h.49l.82,2.36h.03l.82-2.36h.49ZM155.18,145.88v.42h-1.73v-.42h1.73ZM157.1,147.85c-.25,0-.46-.06-.65-.19-.19-.13-.34-.3-.44-.53-.11-.23-.16-.5-.16-.82s.05-.58.16-.81c.11-.23.26-.41.45-.53.19-.12.41-.19.66-.19.19,0,.35.03.46.1.11.06.2.14.26.22.06.08.11.15.14.2h.04v-1.46h.46v3.95h-.44v-.46h-.05c-.03.05-.08.12-.14.2-.06.08-.15.15-.26.22-.11.06-.27.09-.46.09ZM157.16,147.44c.18,0,.34-.05.46-.14.13-.1.22-.23.29-.4.07-.17.1-.37.1-.59s-.03-.42-.1-.58c-.06-.17-.16-.3-.29-.39-.13-.09-.28-.14-.47-.14s-.35.05-.48.15c-.13.1-.22.23-.29.4-.06.17-.09.35-.09.56s.03.4.1.57c.07.17.16.31.29.41.13.1.29.15.48.15ZM160.6,147.85c-.29,0-.53-.06-.74-.19-.21-.13-.36-.3-.48-.53-.11-.23-.17-.5-.17-.8s.06-.57.17-.8c.11-.23.27-.41.47-.54.2-.13.43-.2.7-.2.15,0,.31.03.46.08.15.05.29.14.41.25.12.11.22.27.3.46.07.19.11.42.11.7v.19h-2.28v-.39h1.82c0-.17-.03-.32-.1-.45-.07-.13-.16-.24-.28-.31-.12-.08-.26-.11-.43-.11-.18,0-.34.05-.47.14-.13.09-.23.2-.3.35-.07.14-.11.3-.11.46v.26c0,.22.04.41.12.57.08.15.19.27.33.35.14.08.3.12.48.12.12,0,.23-.02.32-.05.1-.03.18-.09.25-.15.07-.07.13-.16.16-.26l.44.12c-.05.15-.12.28-.23.39-.11.11-.24.2-.41.26-.16.06-.34.09-.54.09ZM163.76,147.85c-.29,0-.53-.06-.74-.19-.21-.13-.36-.3-.48-.53-.11-.23-.17-.5-.17-.8s.06-.57.17-.8c.11-.23.27-.41.47-.54.2-.13.43-.2.7-.2.15,0,.31.03.46.08.15.05.29.14.41.25.12.11.22.27.3.46.07.19.11.42.11.7v.19h-2.28v-.39h1.82c0-.17-.03-.32-.1-.45-.07-.13-.16-.24-.28-.31-.12-.08-.26-.11-.43-.11-.18,0-.34.05-.47.14-.13.09-.23.2-.3.35-.07.14-.11.3-.11.46v.26c0,.22.04.41.12.57.08.15.19.27.33.35.14.08.3.12.48.12.12,0,.23-.02.32-.05.1-.03.18-.09.25-.15.07-.07.12-.16.16-.26l.44.12c-.05.15-.12.28-.23.39-.11.11-.24.2-.4.26-.16.06-.34.09-.54.09ZM165.68,148.9v-4.08h.44v.47h.05c.03-.05.08-.12.14-.2.06-.08.15-.15.26-.22.11-.06.27-.1.46-.1.25,0,.47.06.66.19.19.12.34.3.45.53.11.23.16.5.16.81s-.05.59-.16.82c-.11.23-.25.41-.44.53-.19.12-.41.19-.65.19-.19,0-.34-.03-.46-.09-.11-.06-.2-.14-.26-.22-.06-.08-.11-.15-.14-.2h-.04v1.57h-.46ZM166.12,146.31c0,.22.03.42.1.59.07.17.16.3.29.4.13.1.28.14.46.14s.35-.05.48-.15c.13-.1.22-.24.29-.41.07-.17.1-.36.1-.57s-.03-.4-.1-.56c-.06-.17-.16-.3-.29-.4-.13-.1-.29-.15-.48-.15s-.34.05-.47.14c-.13.09-.22.22-.29.39-.06.17-.1.36-.1.58ZM170.69,145.88v.42h-1.73v-.42h1.73ZM172.87,143.84v3.95h-.48v-3.45h-.02l-.96.64v-.49l.99-.66h.48ZM175.29,147.84c-.29,0-.54-.08-.74-.24-.2-.16-.36-.39-.47-.69-.11-.3-.16-.67-.16-1.1s.05-.79.16-1.09c.11-.3.27-.54.47-.69.21-.16.45-.24.74-.24s.53.08.74.24c.21.16.36.39.47.69.11.3.16.67.16,1.09s-.05.8-.16,1.1c-.11.3-.26.53-.47.69-.2.16-.45.24-.74.24ZM175.29,147.42c.29,0,.51-.14.67-.42.16-.28.24-.67.24-1.19,0-.34-.04-.63-.11-.87-.07-.24-.18-.42-.31-.55-.13-.13-.3-.19-.49-.19-.29,0-.51.14-.67.42-.16.28-.24.68-.24,1.19,0,.34.04.63.11.87.07.24.18.42.31.55.14.12.3.19.49.19ZM178.69,147.84c-.29,0-.54-.08-.74-.24-.2-.16-.36-.39-.47-.69-.11-.3-.16-.67-.16-1.1s.05-.79.16-1.09c.11-.3.27-.54.47-.69.21-.16.45-.24.74-.24s.53.08.74.24c.21.16.36.39.47.69.11.3.16.67.16,1.09s-.05.8-.16,1.1c-.11.3-.26.53-.47.69-.2.16-.45.24-.74.24ZM178.69,147.42c.29,0,.51-.14.67-.42.16-.28.24-.67.24-1.19,0-.34-.04-.63-.11-.87-.07-.24-.18-.42-.31-.55-.13-.13-.3-.19-.49-.19-.29,0-.51.14-.67.42-.16.28-.24.68-.24,1.19,0,.34.04.63.11.87.07.24.18.42.31.55.14.12.3.19.49.19Z"/>
  </g>
</svg>